<?xml version="1.0" encoding="utf-8"?>
<!-- Generator: Adobe Illustrator 23.0.3, SVG Export Plug-In . SVG Version: 6.00 Build 0)  -->
<svg version="1.1" id="圖層_1" xmlns="http://www.w3.org/2000/svg" xmlns:xlink="http://www.w3.org/1999/xlink" x="0px" y="0px"
	 viewBox="0 0 200 200" style="enable-background:new 0 0 200 200;" xml:space="preserve">
<style type="text/css">
	.st0{fill:none;stroke:#BF68FF;stroke-miterlimit:10;}
	.st1{fill:#BF68FF;}
</style>
<g id="face3">
	<ellipse class="st0" cx="100" cy="100" rx="75" ry="52.5"/>
	<g>
		<path class="st1" d="M57.1,106.7h-2c-2.8-3.2-4.2-7.1-4.2-11.8c0-4.7,1.4-8.7,4.2-12h2c-2.8,3.4-4.2,7.4-4.2,11.9
			C52.9,99.4,54.3,103.3,57.1,106.7z"/>
		<path class="st1" d="M68.3,99.6c-0.3,0.1-0.6,0.2-0.9,0.2c-0.6,0-1.1-0.2-1.4-0.6s-0.6-0.9-0.6-1.4c0-0.6,0.2-1,0.6-1.4
			s0.9-0.6,1.4-0.6c0.7,0,1.3,0.3,1.8,0.8s0.7,1.2,0.7,2c0,0.9-0.3,1.7-1,2.5s-1.6,1.1-2.7,1.1c-1.3,0-2.4-0.4-3.3-1.3
			c-1-0.9-1.4-2-1.4-3.4c0-1.6,0.6-2.9,1.9-3.9c1.3-1,2.9-1.5,4.9-1.5c2.1,0,3.9,0.5,5.1,1.6c1.3,1.1,1.9,2.4,1.9,3.9
			c0,1.1-0.4,2.2-1.1,3.1s-1.8,1.5-3.2,1.9V101c1.3-0.5,1.9-1.6,1.9-3.5c0-1.1-0.4-2.1-1.3-2.8c-0.8-0.7-2-1.1-3.5-1.1
			c-1.4,0-2.4,0.4-3.2,1.1s-1.1,1.7-1.1,2.9c0,1,0.2,1.7,0.7,2.3c0.5,0.6,1.1,0.9,1.9,0.9C67.3,100.8,67.9,100.4,68.3,99.6z
			 M67.5,98.7c0.3,0,0.5-0.1,0.7-0.3c0.2-0.2,0.3-0.4,0.3-0.7c0-0.3-0.1-0.5-0.3-0.7c-0.2-0.2-0.4-0.3-0.7-0.3
			c-0.3,0-0.5,0.1-0.7,0.3s-0.3,0.4-0.3,0.7s0.1,0.5,0.3,0.7C66.9,98.6,67.2,98.7,67.5,98.7z"/>
		<path class="st1" d="M86.4,81.4l-3.5,4.4h-1.7l3-4.4H86.4z"/>
		<path class="st1" d="M103.4,88L98,102.3h-2.3L90.3,88H93l3.8,11.2l3.8-11.2H103.4z"/>
		<path class="st1" d="M112.8,85.9h-1.7l-3.5-4.4h2.3L112.8,85.9z"/>
		<path class="st1" d="M124.8,99.6c-0.3,0.1-0.6,0.2-0.9,0.2c-0.6,0-1.1-0.2-1.4-0.6s-0.6-0.9-0.6-1.4c0-0.6,0.2-1,0.6-1.4
			s0.9-0.6,1.4-0.6c0.7,0,1.3,0.3,1.8,0.8s0.7,1.2,0.7,2c0,0.9-0.3,1.7-1,2.5s-1.6,1.1-2.7,1.1c-1.3,0-2.4-0.4-3.3-1.3
			c-1-0.9-1.4-2-1.4-3.4c0-1.6,0.6-2.9,1.9-3.9s2.9-1.5,4.9-1.5c2.1,0,3.9,0.5,5.1,1.6c1.3,1.1,1.9,2.4,1.9,3.9
			c0,1.1-0.4,2.2-1.1,3.1s-1.8,1.5-3.2,1.9V101c1.3-0.5,1.9-1.6,1.9-3.5c0-1.1-0.4-2.1-1.3-2.8c-0.8-0.7-2-1.1-3.5-1.1
			c-1.4,0-2.4,0.4-3.2,1.1c-0.8,0.7-1.1,1.7-1.1,2.9c0,1,0.2,1.7,0.7,2.3c0.5,0.6,1.1,0.9,1.9,0.9
			C123.7,100.8,124.4,100.4,124.8,99.6z M123.9,98.7c0.3,0,0.5-0.1,0.7-0.3c0.2-0.2,0.3-0.4,0.3-0.7c0-0.3-0.1-0.5-0.3-0.7
			c-0.2-0.2-0.4-0.3-0.7-0.3c-0.3,0-0.5,0.1-0.7,0.3s-0.3,0.4-0.3,0.7s0.1,0.5,0.3,0.7C123.4,98.6,123.6,98.7,123.9,98.7z"/>
		<path class="st1" d="M138.1,106.7h-2c2.8-3.4,4.2-7.3,4.2-11.8s-1.4-8.5-4.2-11.9h2c2.8,3.3,4.2,7.3,4.2,12
			C142.3,99.6,140.9,103.5,138.1,106.7z"/>
	</g>
</g>
</svg>
