<?xml version="1.0" encoding="utf-8"?>
<!-- Generator: Adobe Illustrator 23.0.3, SVG Export Plug-In . SVG Version: 6.00 Build 0)  -->
<svg version="1.1" id="圖層_1" xmlns="http://www.w3.org/2000/svg" xmlns:xlink="http://www.w3.org/1999/xlink" x="0px" y="0px"
	 viewBox="0 0 200 200" style="enable-background:new 0 0 200 200;" xml:space="preserve">
<style type="text/css">
	.st0{fill:#BF68FF;}
	.st1{stroke:#BF68FF;}
	.st2{fill:#BF68FF;stroke:#BF68FF;stroke-miterlimit:10;}
	.st3{fill:none;stroke:#BF68FF;stroke-miterlimit:10;}
</style>
<g id="Face1">
	<g>
		<g>
			<path class="st0" d="M53.9,104.1h-1.5c-2.1-2.4-3.1-5.3-3.1-8.8s1-6.5,3.1-8.9H54c-2.1,2.5-3.2,5.5-3.2,8.9
				C50.8,98.6,51.8,101.6,53.9,104.1z"/>
			<path class="st1" d="M63,98.8c0,1.7-1.4,3-3,3s-3-1.4-3-3c0-1.7,1.4-3,3-3C61.7,95.8,63,97.2,63,98.8z M62.2,98.8
				c0-1.2-1-2.2-2.2-2.2s-2.2,1-2.2,2.2s1,2.2,2.2,2.2C61.3,101.1,62.2,100.1,62.2,98.8z"/>
			<path class="st2" d="M84.9,93.6c0,0.7-0.1,1.4-0.3,2c-0.2,0.6-0.4,1.2-0.7,1.8c-0.3,0.6-0.7,1.1-1.2,1.5c-0.5,0.5-1,0.8-1.5,1.2
				c-0.6,0.3-1.1,0.6-1.8,0.7c-0.6,0.2-1.3,0.3-2,0.3s-1.4-0.1-2-0.3c-0.6-0.2-1.2-0.4-1.8-0.7s-1.1-0.7-1.5-1.2
				c-0.5-0.5-0.8-1-1.2-1.5c-0.3-0.6-0.6-1.1-0.8-1.8c-0.2-0.6-0.3-1.3-0.3-2s0.1-1.3,0.3-2c0.2-0.6,0.4-1.2,0.8-1.8
				c0.3-0.6,0.7-1.1,1.2-1.5c0.5-0.5,1-0.8,1.5-1.2c0.6-0.3,1.1-0.6,1.8-0.8c0.6-0.2,1.3-0.3,2-0.3s1.3,0.1,2,0.3
				c0.6,0.2,1.2,0.4,1.8,0.8c0.6,0.3,1.1,0.7,1.5,1.2s0.8,1,1.2,1.5c0.3,0.6,0.6,1.1,0.7,1.8C84.8,92.2,84.9,92.9,84.9,93.6z
				 M77.4,87.4c-0.6,0-1.1,0.1-1.7,0.2c-0.5,0.1-1,0.4-1.5,0.6c-0.5,0.3-0.9,0.6-1.3,1s-0.7,0.8-1,1.3s-0.5,1-0.6,1.5
				s-0.2,1.1-0.2,1.7h6.2L77.4,87.4L77.4,87.4z"/>
			<path class="st2" d="M106.6,85.6l-7.9,15.5h-0.1l-7.9-15.5l0.9-0.5l2.9,5.7h8.3l2.9-5.7L106.6,85.6z M98.6,99L98.6,99l3.7-7.2H95
				L98.6,99z"/>
			<path class="st2" d="M127.3,93.6c0,0.7-0.1,1.4-0.3,2c-0.2,0.6-0.4,1.2-0.7,1.8c-0.3,0.6-0.7,1.1-1.2,1.5c-0.5,0.5-1,0.8-1.5,1.2
				s-1.1,0.6-1.8,0.7c-0.6,0.2-1.3,0.3-2,0.3s-1.4-0.1-2-0.3c-0.6-0.2-1.2-0.4-1.8-0.7c-0.6-0.3-1.1-0.7-1.5-1.2
				c-0.5-0.5-0.8-1-1.2-1.5c-0.3-0.6-0.6-1.1-0.8-1.8c-0.2-0.6-0.3-1.3-0.3-2s0.1-1.3,0.3-2c0.2-0.6,0.4-1.2,0.8-1.8
				c0.3-0.6,0.7-1.1,1.2-1.5c0.5-0.5,1-0.8,1.5-1.2c0.6-0.3,1.1-0.6,1.8-0.8c0.6-0.2,1.3-0.3,2-0.3s1.3,0.1,2,0.3
				c0.6,0.2,1.2,0.4,1.8,0.8c0.6,0.3,1.1,0.7,1.5,1.2s0.8,1,1.2,1.5c0.3,0.6,0.6,1.1,0.7,1.8C127.2,92.2,127.3,92.9,127.3,93.6z
				 M119.9,87.4c-0.6,0-1.1,0.1-1.7,0.2c-0.5,0.1-1,0.4-1.5,0.6c-0.5,0.3-0.9,0.6-1.3,1s-0.7,0.8-1,1.3s-0.5,1-0.6,1.5
				s-0.2,1.1-0.2,1.7h6.2L119.9,87.4L119.9,87.4z"/>
			<path class="st1" d="M137.6,98.8c0,1.7-1.4,3-3,3s-3-1.4-3-3c0-1.7,1.4-3,3-3C136.3,95.8,137.6,97.2,137.6,98.8z M136.8,98.8
				c0-1.2-1-2.2-2.2-2.2s-2.2,1-2.2,2.2s1,2.2,2.2,2.2C135.8,101.1,136.8,100.1,136.8,98.8z"/>
			<path class="st0" d="M144.9,104.1h-1.5c2.1-2.5,3.1-5.4,3.1-8.8s-1.1-6.4-3.2-8.9h1.5c2.1,2.5,3.1,5.4,3.1,8.9
				C148,98.8,147,101.7,144.9,104.1z"/>
		</g>
		<ellipse class="st3" cx="100" cy="100" rx="75" ry="52.5"/>
	</g>
</g>
</svg>
