<?xml version="1.0" encoding="utf-8"?>
<!-- Generator: Adobe Illustrator 23.0.3, SVG Export Plug-In . SVG Version: 6.00 Build 0)  -->
<svg version="1.1" id="圖層_1" xmlns="http://www.w3.org/2000/svg" xmlns:xlink="http://www.w3.org/1999/xlink" x="0px" y="0px"
	 viewBox="0 0 200 200" style="enable-background:new 0 0 200 200;" xml:space="preserve">
<style type="text/css">
	.st0{fill:none;stroke:#BF68FF;stroke-miterlimit:10;}
	.st1{fill:#BF68FF;}
</style>
<g id="face2">
	<ellipse class="st0" cx="100" cy="100" rx="75" ry="52.5"/>
	<g>
		<path class="st1" d="M49.3,95.1c0-4.5,1.3-8.2,3.4-11.6L54,84c-2,3.3-2.9,7.1-2.9,11s0.9,7.8,2.9,11l-1.3,0.6
			C50.6,103.3,49.3,99.6,49.3,95.1z"/>
		<path class="st1" d="M73,100.1c0,1.9-1.6,3.5-3.5,3.5S66,102,66,100.1s1.6-3.5,3.5-3.5S73,98.2,73,100.1z M71.8,100.1
			c0-1.3-1-2.3-2.3-2.3s-2.3,1.1-2.3,2.3c0,1.3,1.1,2.3,2.3,2.3S71.8,101.4,71.8,100.1z"/>
		<path class="st1" d="M83,96c0-4.2,2.7-6.6,5.8-6.6s5.8,2.4,5.8,6.6c0,4.1-2.7,6.5-5.8,6.5S83,100.1,83,96z M84.8,83.7l1.3-0.2
			c0.2,1.3,1,2.7,2.7,2.7s2.5-1.3,2.7-2.7l1.3,0.2c-0.1,1.9-1.2,3.9-4,3.9C86.1,87.6,84.9,85.6,84.8,83.7z M92.4,96
			c0-2.9-1.5-4.8-3.6-4.8c-2.2,0-3.6,2-3.6,4.8s1.4,4.8,3.6,4.8S92.4,98.8,92.4,96z"/>
		<path class="st1" d="M96.1,104h12.2v1.4H96.1V104z"/>
		<path class="st1" d="M109.8,96c0-4.2,2.7-6.6,5.8-6.6c3.1,0,5.8,2.4,5.8,6.6c0,4.1-2.7,6.5-5.8,6.5S109.8,100.1,109.8,96z
			 M111.5,83.7l1.3-0.2c0.2,1.3,1,2.7,2.7,2.7s2.5-1.3,2.7-2.7l1.3,0.2c-0.1,1.9-1.2,3.9-4,3.9C112.8,87.6,111.7,85.6,111.5,83.7z
			 M119.2,96c0-2.9-1.5-4.8-3.6-4.8c-2.2,0-3.6,2-3.6,4.8s1.4,4.8,3.6,4.8C117.7,100.8,119.2,98.8,119.2,96z"/>
		<path class="st1" d="M144,106.1c2-3.3,2.9-7.1,2.9-11s-1-7.8-2.9-11l1.3-0.6c2.1,3.4,3.4,7.1,3.4,11.6s-1.3,8.2-3.4,11.7
			L144,106.1z"/>
	</g>
</g>
</svg>
