<?xml version="1.0" encoding="utf-8"?>
<!-- Generator: Adobe Illustrator 23.0.3, SVG Export Plug-In . SVG Version: 6.00 Build 0)  -->
<svg version="1.1" id="Capa_1" xmlns="http://www.w3.org/2000/svg" xmlns:xlink="http://www.w3.org/1999/xlink" x="0px" y="0px"
	 viewBox="0 0 512 512" style="enable-background:new 0 0 512 512;" xml:space="preserve">
<style type="text/css">
	.st0{fill:#654E84;}
	.st1{fill-rule:evenodd;clip-rule:evenodd;fill:#654E84;}
</style>
<g>
	<path class="st0" d="M104.9,70.3c-9.9-0.5-21.5,6-25.2,8.3c5.8,6.9,7.5,21.5,8,27.7c10.4-10.5,18.4-11.1,23.5-9.9
		c-0.2-4.8-0.9-17.2-4.5-25.7C106.1,70.4,105.5,70.3,104.9,70.3 M101.8,106.7c-13.6,3.3-21.2,8.1-23.2,9.5c0.4,2.6,0.6,5.4,0.6,8.3
		c0,15-4.3,32.2-6.3,39.5c9.3-7.4,17.7-12.8,25-16.2C100.4,136.1,103.2,119.6,101.8,106.7 M157.6,143.6c2.8-3.7,4.7-7.5,6-11.5
		c-3.6,1.1-7.8,2.7-12.5,5.2C154.7,139,156.6,141.7,157.6,143.6 M133.8,55.8c-11.1-0.7-24.2,6.1-28.1,8.3c1.1,1.3,2,2.9,2.8,4.6
		c0.3,0.6,0.5,1.2,0.8,1.9c0.3,0.8,0.6,1.6,0.8,2.4c2.6,8.1,3.3,17.8,3.5,22.5c0.9-0.9,1.8-1.7,2.7-2.4c0.4-0.3,0.8-0.6,1.1-0.9
		c0.4-0.3,0.8-0.6,1.1-0.9c7-5.4,13.7-7.5,19.9-6.3C138.4,81.3,137.9,66.3,133.8,55.8 M127.3,95.3c-3.2,0.8-6,1.7-8.5,2.7
		c-0.4,0.1-0.8,0.3-1.2,0.4c-0.8,0.3-1.5,0.6-2.2,0.9c-0.5,0.2-1,0.4-1.5,0.6c-0.9,0.4-1.7,0.7-2.4,1.1c-0.1,0-0.2,0.1-0.3,0.1
		c-1.4,0.7-2.6,1.3-3.7,1.9c-1.4,0.7-2.4,1.4-3,1.8c-0.2,0.1-0.4,0.3-0.6,0.4c0,0.3,0.1,0.6,0.1,1c0.3,2.7,0.5,5.4,0.5,8.3
		c0,10.9-2,22.8-4.1,32c-0.1,0.5-0.2,0.9-0.3,1.4c-0.1,0.5-0.2,1-0.3,1.5c-0.9,3.8-1.8,7.1-2.4,9.3c9.4-7.5,17.8-13.2,25.3-17
		C125.8,128.7,129.1,109.8,127.3,95.3 M140.7,88c-0.5,0.2,1.9-0.8,1.9-0.8 M171.8,44.2c-2.1-3.5-4.8-5.4-8-5.7
		c-12.6-1.1-27.6,6.9-31.9,9.3c1.3,1.6,2.5,3.6,3.4,5.8c0.2,0.4,0.4,0.9,0.6,1.4c0.2,0.5,0.4,1,0.5,1.5c2.2,6.1,3.3,13.2,3.8,19
		c0.3,3,0.4,5.7,0.5,7.5c0.2-0.2,0.4-0.4,0.6-0.6c0.4-0.4,0.8-0.8,1.2-1.1c17.7-15.9,28.5-10,33.4-7.4c0.3,0.2,0.7,0.4,1,0.5
		c0.1-0.9,0.2-2.5,0.2-4.5C177.3,63.2,176.2,51.5,171.8,44.2 M140.7,88c-2.6,1.1-4.8,2.2-6.5,3.1c-1.4,0.8-2.6,1.5-3.4,2
		c-0.6,0.4-1,0.6-1.3,0.8c0,0.2,0.1,0.5,0.1,0.7c0.4,3.1,0.6,6.3,0.6,9.7c0,12.2-2.3,25.7-4.6,36c-0.1,0.5-0.2,1-0.3,1.5
		c-0.1,0.5-0.2,1-0.3,1.5c-1,4.4-2,8-2.7,10.5c8.5-6.8,15.9-11.9,22.4-15.7c0.6-0.3,1.2-0.7,1.7-1c0.5-0.3,1.1-0.6,1.6-0.9
		c6.3-3.5,11.7-5.6,16.3-6.8c0.5-0.1,0.9-0.2,1.4-0.3c0.4-0.1,0.8-0.2,1.3-0.3c5.6-1.1,9.8-0.8,12.9,0.3c5.5,1.8,8.1,5.5,9.3,7.9
		c6.9-9,9.2-19.3,9.2-28.8c0-14.5-5.1-27-6.4-30.1c-22.7,0.4-39,5-49.3,9.2 M69.3,205.4l-0.3,4.5c-2.8,1.3-5.1,3-11.8,3
		c-9.6,0-16-6.1-16-15.8c0-10.4,7.2-14.9,16-14.9c3.2,0,6.3,0.8,9.3,1.5c0.3,0.1,1.3,0.2,1.7,0.2v8.2h-1.6c-0.6-4.9-3.8-7.9-8.8-7.9
		c-6.3,0-9.8,5.7-9.8,13.1c0,6.6,4,13.5,11.3,13.5c3.6,0,7.8-1.9,9.2-5.6H69.3 M100.9,197.5c0,9.9-5.6,15.5-15.1,15.5
		c-10.1,0-15.1-5.3-15.2-15.6c0.1-9.8,5.3-15.1,15.5-15.1C95.7,182.3,100.9,187.7,100.9,197.5z M77.5,196.7
		c0,10.5,3.9,14.5,8.5,14.5c5.9,0,8.1-6.2,8.1-12.4c0-10.4-3.9-14.6-8.5-14.5C80.8,184.1,77.5,187.7,77.5,196.7 M105.1,209.9v-24.5
		l-4.1-0.8V183h13.6c6.4,0,10.8,1.9,10.8,8c0,4-2.9,6.1-5,7.3c3.5,8.6,6.7,13.1,9.1,13.7l-0.5,1.1l-8.6-1.9
		c-2.4-3.6-4.4-7.4-6.2-11.3c-1,0.1-2,0.1-2.9,0v10l4.3,0.8v1.6H101v-1.6L105.1,209.9z M111.2,197.8c0.7,0.3,1.4,0.3,2.1,0.3
		c3.7,0,5.9-2.3,5.9-5.9c0-5.6-2.8-7.4-7.5-7.4h-0.6V197.8 M148.3,191.3h-1.5c-0.3-3.7-1.8-7.1-6-7.1c-2.7,0-4.7,1.4-4.7,4.3
		c0,7.4,13.9,4.5,13.9,15.3c0,5.4-4.5,9.2-10,9.2c-2.9,0-5.9-0.8-8.5-2.3c0-2.4,0-4.9-0.3-7.3h1.7c0.5,3.7,2.2,7.7,6.8,7.7
		c3.3,0,5.3-1.9,5.3-5.1c0-6.2-13.5-5.2-13.5-14.6c0-6.1,3.9-9.1,9.7-9.1c2.4,0,4.9,0.8,7.1,1.8V191.3 M149.6,212.3v-1.6l3.4-0.8
		l10.2-27.6h3.7l10.6,27.6l3.4,0.8v1.6h-14.3v-1.6l3.9-0.8l-2.8-7.7h-9.3l-2.6,7.7l3.9,0.8v1.6H149.6z M159.1,199.9h7.6l-4-10.2
		L159.1,199.9 M192.8,185.4v24.5l4.1,0.8v1.6h-14.4v-1.6l4.1-0.8v-24.5l-4.1-0.8V183h14.4v1.6L192.8,185.4 M203.3,209.9v-24.5
		l-4.1-0.8V183h13.6c6.4,0,10.8,1.9,10.8,8c0,4-2.9,6.1-5,7.3c3.5,8.6,6.7,13.1,9.1,13.7l-0.5,1.1l-8.5-1.9
		c-2.4-3.6-4.4-7.4-6.2-11.3c-1,0.1-2,0.1-2.9,0v10l4.3,0.8v1.6h-14.6v-1.6L203.3,209.9z M209.4,197.8c0.7,0.3,1.4,0.3,2.1,0.3
		c3.7,0,5.9-2.3,5.9-5.9c0-5.6-2.8-7.4-7.4-7.4h-0.6V197.8"/>
</g>
<g>
	<path class="st0" d="M448.9,27.1l-3-0.7l1.5-2.7l-2.3,2.5l-5,2.1c-0.4-0.5-1.2-0.8-2.3-0.5c-3,0.8-3.1-0.9-6.5,0.4
		c-0.7,0.3-0.5-0.3-2.6,0.4c-1.5,0.5-2.5,3-3.5,3.2c-9.8,2.1-5.9,10.4-4.5,12.1c1.7,2.1,0.3,2.8-0.5,2c-1.2-1.2-2.6-3.1-5.3-5.8
		c-9.4-9.3-27,0.2-23,14.7c3.7,13.7,18.6,27.2,24.8,33.5c5.6,5.7,15.4,21.4,2.7,27.2c-4.3,2-8.1,2.1-11.2,1.3
		c4.4-7.3,4.2-16.4-1.1-21.9c-7.2-7.5-12.5-3.4-12.5-3.4c8.4,0,19,10.6,10.3,22.1c-0.4,0.5-0.7,0.9-1.1,1.3
		c-3.7-2.2-6.4-5.5-8.2-7.3c-0.8-0.8-8.2-10.2-17.3-10c0.8-9.7-6.2-19.7-15.9-25c-1.3-0.7-2.6-1.3-4-1.7
		c-0.9-7.3-4.5-15.5-15.7-18.7c-17-4.8-24.2,7.9-26.9,15.3c-2.3,6.4-8.5,35.1-9.6,39.7c-1,4.4-7.2,12.4-13.2,7.5
		c-4.6-3.7-1.7-12.1-1-15.3c0.7-3.5-2.3-7.7-6.6-7.1c-5.1,0.8-6,5.4-6.6,6.9c-1.2,3.2-4.1,1.6-4.7,1.2c-0.9-0.6-1.4-3.1-2.8-3.9
		c-2-1.1-1.9-0.5-2.5-0.9c-3.1-1.9-3.5-0.3-6.3-1.7c-0.9-0.4-1.6-0.4-2.1-0.1c-0.2,0.1-0.3,0.2-0.4,0.4l-4.4-2.8l-1.8-2.8l1.1,2.9
		l-3.1,0.3l3.3,0.5l4.4,2.8c-0.2,0.7-0.1,1.6,0.9,2.4c2.4,2,1.1,3,4.1,5.1c0.6,0.4,0,0.6,1.8,1.9c1.3,0.9,3.9,0.3,4.7,1
		c7.4,6.7,11.9-1.3,12.5-3.3c0.7-2.6,2.1-1.8,1.9-0.8c-0.3,1.6-1,3.9-1.6,7.7c-2.1,13.1,15.8,21.8,25.4,10.1c9-11,11.3-31,12.8-39.7
		c1.4-7.9,8.4-25,20.6-18c4.1,2.4,6.4,5.3,7.6,8.4c-8.5,0.6-15.8,6.2-17.2,13.6c-1.9,10.2,4.6,12.1,4.6,12.1
		c-4.9-6.8-2.4-21.6,12-21.2c0.6,0,1.2,0.1,1.7,0.1c0.4,4.3-0.7,8.4-1.1,10.9c-0.2,1.1-3.3,11.8,1.4,19.1
		c-8.8,3.6-14.6,13.9-15.3,24.6c-0.1,1.5-0.1,2.9,0.1,4.3c-6.2,3.9-12.2,10.6-10.4,22c2.7,17.4,17.2,18.7,25.2,18.1
		c6.8-0.6,35.4-6.9,40.1-7.8c4.4-0.9,14.2,1.4,12.3,8.8c-1.5,5.7-10.3,6.6-13.5,7.3c-3.5,0.8-6,5.3-3.7,8.9c2.8,4.3,7.4,3.2,9.1,3.1
		c3.4-0.2,3.2,3.1,3.1,3.7c-0.1,1-2.2,2.6-2.4,4.2c-0.2,2.3,0.3,1.9,0.2,2.6c-0.4,3.6,1.2,3.3,1.1,6.4c0,0.9,0.3,1.5,0.7,1.9l0,0
		l0.1,0.1l0.1,0.1v0c0.1,0.1,0.2,0.1,0.4,0.2l-0.9,6l-1.8,2.8l2.1-2.2l1.5,2.7l-0.9-3.2l0.9-6c0.7-0.1,1.4-0.6,1.7-1.8
		c0.9-3,2.3-2.3,2.9-5.8c0.1-0.7,0.5-0.2,1-2.5c0.3-1.6-1.4-3.7-1.1-4.7c3-9.5-6.1-10.3-8.2-9.9c-2.6,0.4-2.5-1.1-1.5-1.4
		c1.6-0.4,3.9-0.7,7.7-1.8c12.8-3.6,13.3-23.5-1.3-27.3c-13.8-3.6-32.9,2.6-41.4,4.9c-7.8,2-26.2,2.7-24.9-11.2
		c0.4-4.7,2.2-8,4.4-10.4c4.1,7.5,12.2,11.8,19.5,9.9c10.1-2.5,9.1-9.2,9.1-9.2c-4.2,7.3-18.7,11.2-24.3-2c-0.2-0.5-0.4-1.1-0.6-1.6
		c3.8-2.1,7.9-2.9,10.4-3.5c1.1-0.3,13.4-2.1,17.5-10.6c7.5,5.4,19,5.2,28.4,0.7c1.3-0.6,2.6-1.4,3.7-2.2c6.5,3.5,15.3,5.3,24.3-1.9
		c13.8-11,7.7-24.3,3.2-30.8c-3.8-5.6-23.6-27.4-26.7-30.9c-3-3.4-5.9-13.1,1.5-15.1c5.7-1.6,10.8,5.7,13,8.1
		c2.4,2.6,7.6,2.6,9.6-1.2c2.3-4.6-0.9-8.1-1.8-9.4c-1.9-2.8,1.1-4.3,1.7-4.5c1-0.4,3.4,0.6,4.8,0c2.1-1,1.5-1.2,2.2-1.5
		c3.3-1.4,2.3-2.6,5-4.1c0.8-0.4,1.1-0.9,1.3-1.4l0-0.1c0.1-0.4,0.1-0.7,0-0.9l4.9-2.1L448.9,27.1 M358.2,80.9
		c0.1-0.9,0.2-2,0.2-3.1c4.7,3.2,8.1,8.4,9.7,13.1c2.3,6.9-0.2,11.8-3,12.1C355.9,104.1,357.5,88,358.2,80.9z M345,129.6
		c-0.9,0.3-1.9,0.7-3,1.1c1-5.6,4.2-10.8,7.9-14.3c5.3-5,10.8-4.7,12.3-2.3C367,122.1,351.7,127.3,345,129.6z M380.6,119.6
		c-7-2.2-9.5-7.1-8.1-9.5c4.5-8.1,16.6,2.6,22,7.3c0.7,0.6,1.5,1.3,2.4,2C391.6,121.3,385.4,121.1,380.6,119.6z"/>
</g>
<g>
	<g>
		<g>
			<g>
				<path class="st0" d="M123.6,441.4c-0.2-0.3,0-0.6,0.3-0.7c0.7-0.2,1.1-0.3,1.1-0.7c0-4.6,0.2-4.9-0.5-5c-3-0.1-6.1,0.2-9.1-0.2
					c0,0-0.1,0-0.1,0c-5.5-1.7-12,0.1-15.5,4.8c-4.1,5.2-3.7,13.4,0.9,18.1c4.9,5.2,13.7,5.7,19.3,1.3
					C125.4,455,126.9,447,123.6,441.4z M113.7,455.1c-3.8,1.4-8.4-0.9-9.6-4.8c-1.3-3.7,0.9-8.1,4.6-9.3c3.6-1.3,8,0.6,9.3,4.1
					C119.8,448.9,117.7,453.8,113.7,455.1z"/>
			</g>
		</g>
	</g>
	<g>
		<g>
			<g>
				<path class="st0" d="M64.2,424.5c0-0.3-0.2-0.5-0.5-0.5c-1.9,0-3.7,0-5.6,0c-0.3,0-0.5,0.2-0.5,0.5c0,12,0,24.1,0,36.1
					c0,0.3,0.2,0.5,0.5,0.5c1.9,0,3.7,0,5.6,0c0.3,0,0.5-0.2,0.5-0.5C64.3,448.6,64.3,436.5,64.2,424.5z"/>
			</g>
		</g>
	</g>
	<g>
		<g>
			<g>
				<path class="st0" d="M119.1,462.8c-0.3,0-0.5,0.2-0.5,0.4c-0.1,1-0.3,2.1-0.8,3c-3.1,6.5-13.5,5-14.1-3c0-0.3-0.2-0.5-0.5-0.5
					c-1.9,0-3.8,0-5.7,0c-0.3,0-0.5,0.2-0.5,0.5c0.1,11.8,14.4,17.5,23.2,10.4c3.2-2.5,4.9-6.4,5.1-10.4
					C125.4,462.6,125.1,462.8,119.1,462.8z"/>
			</g>
		</g>
	</g>
	<g>
		<g>
			<g>
				<path class="st0" d="M93.1,441c-2.9-5.1-9.1-7.7-14.8-6.7c-2.6,0.4-5.1,1.6-7,3.3c-5.4,4.6-6.1,13.5-1.6,19
					c6.7,8.7,22.1,6.3,24.9-5.1C95.3,448,94.9,444.2,93.1,441z M84.9,454.3c-3.5,2.4-8.8,1.1-10.7-2.7c-2.4-4,0.1-9.8,4.7-10.8
					c3-0.8,6.4,0.5,8,3.1C89.3,447.2,88.3,452.2,84.9,454.3z"/>
			</g>
		</g>
	</g>
	<g>
		<g>
			<g>
				<path class="st0" d="M201.2,452.4c-2.2,2.4-5.7,3.8-8.8,2.6c-3.8-1.2-5.8-5.7-4.5-9.4c1.2-4.3,7.5-7.9,13.4-2
					c0.2,0.2,0.5,0.2,0.7,0c1.3-1.3,2.6-2.6,3.9-3.9c0.2-0.2,0.2-0.5,0-0.7c-6.6-7.4-17.5-5.9-22.3,0.5c-4.4,5.7-3.5,14.7,2.3,19.2
					c5.8,4.8,15.3,4,20-1.8c0.2-0.2,0.1-0.5,0-0.7C202,452.4,201.7,451.9,201.2,452.4z"/>
			</g>
		</g>
	</g>
	<g>
		<g>
			<g>
				<path class="st0" d="M156.1,437.6c-6.3,5.5-6.1,16.9,0.8,21.8c6.1,4.2,15.1,3.1,20.3-2.1c0.2-0.2,0.2-0.5,0-0.7
					c-4-3.8-4-4.2-4.5-3.7c-5.3,5.1-11.8,3.8-13.9-1.4c-0.4-1.1,0.5-0.6,19.5-0.7c0.3,0,0.5-0.2,0.5-0.5
					C179.5,433.8,163.7,430.7,156.1,437.6z M171.2,445.3c-4.1,0-8.2,0.1-12.2,0c-0.3,0-0.6-0.4-0.5-0.7c2.1-5.3,7.8-5.5,10.9-3.3
					c1.1,0.8,1.8,2,2.3,3.3C171.8,445,171.6,445.3,171.2,445.3z"/>
			</g>
		</g>
	</g>
	<g>
		<g>
			<g>
				<path class="st0" d="M233.7,446.2c0-12.8-12.1-14.3-17.8-9.6c-0.3,0.3-0.8,0-0.8-0.4c0-3.9,0-7.8,0-11.7c0-0.3-0.2-0.5-0.5-0.5
					c-1.9,0-3.8,0-5.7,0c-0.3,0-0.5,0.2-0.5,0.5c0,12.1,0,24.1,0,36.2c0,0.3,0.2,0.5,0.5,0.5c1.9,0,3.8,0,5.7,0
					c0.3,0,0.5-0.2,0.5-0.5c0-4.7,0-9.4,0-14c-0.1-7.6,12.2-8.4,11.9,0c0,4.7,0,9.4,0,14c0,0.3,0.2,0.5,0.5,0.5c6,0,6.2,0.2,6.2-0.5
					C233.7,455.8,233.8,451,233.7,446.2z"/>
			</g>
		</g>
	</g>
	<g>
		<g>
			<g>
				<path class="st0" d="M129.7,423.4c-3.3,0.9-4,6-1.1,7.8c2.6,1.9,6.9-0.1,6.9-3.4C135.8,424.8,132.5,422.4,129.7,423.4z"/>
			</g>
		</g>
	</g>
	<g>
		<g>
			<g>
				<path class="st0" d="M133.9,435c-1.9,0-3.7,0-5.6,0c-0.7,0-0.4-1.1-0.5,25.6c0,0.3,0.2,0.5,0.5,0.5c1.9,0,3.7,0,5.6,0
					c0.3,0,0.5-0.2,0.5-0.5C134.4,433.8,134.6,435,133.9,435z"/>
			</g>
		</g>
	</g>
	<g>
		<g>
			<g>
				<path class="st0" d="M150.2,435c-2.5,0-3,0.2-3-0.5c-0.1-7.3,0.2-7.6-0.5-7.6c-1.9,0-3.7,0-5.6,0c-0.3,0-0.5,0.2-0.5,0.5
					c0,2.3,0,4.7,0,7c0,0.3-0.2,0.5-0.5,0.5c-2.5,0-3-0.1-3,0.5c0,5-0.1,5.4,0.5,5.4c0.8,0,1.6,0,2.5,0c0.3,0,0.5,0.2,0.5,0.5
					c0,6.4,0,12.9,0,19.3c0,0.3,0.2,0.5,0.5,0.5c1.9,0,3.7,0,5.6,0c0.3,0,0.5-0.2,0.5-0.5c0-20.4-0.2-19.8,0.5-19.8
					c2.5,0,3.1,0.1,3.1-0.5C150.7,435.4,150.9,435,150.2,435z"/>
			</g>
		</g>
	</g>
	<g>
		<g>
			<g>
				<path class="st0" d="M210.6,323.2h-22.7c-1.7,0-3.1,1.4-3.1,3.1c0,1.7,1.4,3.1,3.1,3.1h20.9v56.1h-22.6v-29.1
					c0-2.4-1.9-4.3-4.3-4.3h-29.1v-22.6h20.8c1.7,0,3.1-1.4,3.1-3.1c0-1.7-1.4-3.1-3.1-3.1h-22.7c-2.4,0-4.3,1.9-4.3,4.3v26.3
					c0,2.4,1.9,4.3,4.3,4.3H180v29.1c0,2.4,1.9,4.3,4.3,4.3h26.3c2.4,0,4.3-1.9,4.3-4.3v-59.7C214.9,325.1,213,323.2,210.6,323.2z"
					/>
			</g>
		</g>
	</g>
	<g>
		<g>
			<g>
				<path class="st0" d="M105.8,331.7c-0.3,1.7,0.8,3.3,2.5,3.5c1.7,0.3,3.3-0.8,3.5-2.5c2.9-17.5,18-30.6,35.8-31.1
					c2.3-0.1,4.1-1.9,4.1-4.2V271c0-1.1-0.5-2.2-1.3-3c-0.8-0.8-1.9-1.2-3-1.2c-39,0.7-70.9,32.4-70.9,72.1
					c0,39.7,31.9,71.5,70.9,72.1c0,0,0,0,0.1,0c2.4,0,4.2-2,4.2-4.2v-26.3c0-2.3-1.8-4.2-4.1-4.2c-17.4-0.5-32.4-13.2-35.6-30.3
					c-0.3-1.7-1.9-2.8-3.6-2.4c-1.7,0.3-2.8,1.9-2.4,3.6c3.6,19.1,19.8,33.8,39.6,35.2v22.6c-34.9-1.6-62.9-30.8-62.9-65.9
					s28.1-64.3,62.9-65.9v22.6C125.7,297,109.1,311.9,105.8,331.7z"/>
			</g>
		</g>
	</g>
</g>
<g>
	<path class="st1" d="M387.7,326c-0.3,0.1-0.4,0.2-0.7,0.5c-0.3,0.2-0.5,0.4-0.7,0.6c-0.6,0.5-0.9,0.8-1.4,1.2
		c-2.5,2.1-5.9,5.4-8.4,7.7c-3.8,3.6-7.3,7-11,10.6c-6.9,6.7-14.8,14.8-21.7,21.3c-5.7,5.4-10.7,10.2-16.7,15.5
		c-2.3,2-3.7,3.9-6.9,4c-5.1,0.2-11.9-4.2-15.4-6.2c-3-1.7-11.1-6.5-15-6.6l2.8,3.9c2,3.1,5.5,9.9,7.1,13.2
		c5.6,11.3,13.3,23.2,23,31c2.5,2,4.7,3.7,7.9,5.6c1.4,0.8,2.8,1.5,4.3,2.4c0.5,0.3,4.3,2,4.7,2c-1-1-2.1-2.3-2.9-3.2
		c-3.7-4.3-11.9-12.8-14.4-17.1c-2.1-3.6-2.5-5.8-0.2-9.5c2.6-4.2,8.8-9.3,12.6-12.6c9.4-8,17.8-15.3,27.6-22.9
		c4.6-3.6,9.5-7.3,14.5-10.9c4.9-3.5,9.8-6.9,14.9-10.3l7.7-4.9c0.7-0.4,7.8-4.6,7.9-4.7l6.9-3.8c2.3-1.3,4.6-2.4,7-3.7
		c7.2-3.9,21.5-10.2,29.6-13.1c2.7-0.9,5.2-1.8,8-2.8l8.1-2.5c-0.7-0.3-9.7-0.4-11.3-0.4c-6.7,0-10.8,0.2-17.1,0.7
		c-4.9,0.4-13.9,1.4-18.4,2.5c-0.8,0.2-1.7,0.3-2.5,0.5c-1.5,0.4-3.3,0.7-4.9,1.1c-3.2,0.8-6.2,1.7-9.2,2.6c-3.1,0.9-6,2-8.8,3.2
		C393.1,321.8,388.1,325.2,387.7,326L387.7,326z M452.8,342.1l5.9-3c2.1-1,4.2-2.1,6.1-3c3.9-1.9,6.2-8.1,6.1-12.1
		c-0.7,0-3.5,1.4-4.3,1.6c-0.5,0.2-1,0.4-1.5,0.6c-3.5,1.5-8.2,3.2-11.5,4.8c-1,0.5-1.9,0.8-2.9,1.2c-0.8,0.3-2.4,1-2.8,1.4
		c-1.1-0.1-22.5,10.6-25.1,11.9c-3.8,2-8.6,4.3-12.2,6.4c-0.4,0.2-11.6,6.1-12,6.7c-0.7,0.1-8.4,4.7-9.6,5.3
		c-15.1,8.5-31.8,19.2-46.3,29.1c-4,2.7-9.2,6.3-13.2,9.3l-3.2,2.4c-0.4,0.3-0.8,0.5-1,0.9c1.4,1.2,11,5.2,13.3,6
		c12.8,4.6,24.8,7.8,38.2,10.1l8.5,1.3l6.7,0.6l-5.5-0.5c1,0.1,2.1,0.3,3.1,0.4c1.5,0.1,3,0.3,4.5,0.4c2.9,0.3,6.3,0.5,9.3,0.5
		c3.7,0.1,5.8,0.3,8.8-1c2.4-1,4.3-2.2,6.2-3.7c7-5.4,13.3-13.8,18.3-21.4c5.2-8,9.9-16.9,14-25.7c2.1-4.5,4-9.2,5.8-14
		c0.9-2.4,1.7-4.8,2.6-7.3c0.5-1.4,2.1-6.6,2.3-7.8c-1.9,0.3-35.4,18.3-38.6,20c-4.3,2.3-8.5,4.7-12.7,7c-4.1,2.2-8.4,4.8-12.4,7.1
		c-8.2,4.6-16.5,9.7-24.8,14.4c-1.4,0.8-11.9,6.9-12.3,7.4c0.7-0.1,33.9-14.4,34.7-14.7c1.6-0.6,34.2-14.6,34.7-14.7
		c-0.2,0.8-2.2,4.5-2.7,5.6c-0.8,1.8-1.9,3.9-2.8,5.8c-5.3,10.4-11,22.9-22.4,27.5l-0.7,0.4c-0.6,0-2.3,0.7-3,0.9
		c-1.1,0.3-2.2,0.5-3.3,0.7c-5.3,1.1-13.3,0.5-18.8-0.3c-6.3-1-10.7-2.1-16.8-3.6c-1.5-0.4-12-3.3-12.6-3.7c0.3-0.6,6.4-4.5,6.9-4.8
		c11.6-8.1,31-20,43.5-27.1c1.3-0.8,2.6-1.4,3.8-2.1c1-0.6,2.9-1.5,3.7-2.1l5.9-3.2c2-1.1,3.8-2.1,5.9-3.3c4-2.3,8-4.2,11.9-6.3
		C429.2,354.2,451.4,342.5,452.8,342.1L452.8,342.1z M301.5,403.2c-0.2-0.5-4.3-4.8-5-5.6c-5.1-5.7-10-10.9-15.1-16.9
		c-3.5-4.1-6.7-8-9.7-11.6c-1.3-1.5-8.2-10.2-9.2-12c-0.1,0.3,1.6,7.5,1.9,8.4c0.4,1.4,0.7,2.7,1.1,4.2c3.9,14.3,7.9,19.8,21.4,26.7
		C288.5,397.2,300.6,403.1,301.5,403.2L301.5,403.2z"/>
</g>
</svg>
