<?xml version="1.0" encoding="utf-8"?>
<!-- Generator: Adobe Illustrator 23.0.3, SVG Export Plug-In . SVG Version: 6.00 Build 0)  -->
<svg version="1.1" id="gun" xmlns="http://www.w3.org/2000/svg" xmlns:xlink="http://www.w3.org/1999/xlink" x="0px" y="0px"
	 viewBox="0 0 200 200" style="enable-background:new 0 0 200 200;" xml:space="preserve">
<style type="text/css">
	.st0{fill:#BF68FF;}
</style>
<g>
	<g>
		<g>
			<path class="st0" d="M57.1,125.4c-2.4,3-6.2,4.3-9.8,3.6c0.7,0.9,1.6,1.7,2.7,2.4c3.1,1.9,6.8,1.9,9.8,0.4l0.2-0.2L57.1,125.4z"
				/>
			<path class="st0" d="M46.4,134.7c-2.9-6-0.3-13.1,5.6-16c0.5-0.2,1.1-0.4,1.6-0.6l-2.6-5.5c-0.5,0.2-1.1,0.4-1.6,0.7
				c-9,4.3-12.7,15-8.5,24c1.7,3.6,4.5,6.4,7.8,8.1l3.9-4.8C50,139.5,47.7,137.5,46.4,134.7z"/>
		</g>
		<g>
			<polygon class="st0" points="72.7,153 92.1,143.7 29.6,13 12.3,15 10,22 			"/>
			<polygon class="st0" points="9.1,24.9 6.9,32 53,129.6 21.4,168.6 44.1,187 70.9,153.9 70.9,153.9 			"/>
		</g>
	</g>
	<g>
		<g>
			<path class="st0" d="M142.9,125.4c2.4,3,6.2,4.3,9.8,3.6c-0.7,0.9-1.6,1.7-2.7,2.4c-3.1,1.9-6.8,1.9-9.8,0.4l-0.2-0.2
				L142.9,125.4z"/>
			<path class="st0" d="M153.6,134.7c2.9-6,0.3-13.1-5.6-16c-0.5-0.2-1.1-0.4-1.6-0.6l2.6-5.5c0.5,0.2,1.1,0.4,1.6,0.7
				c9,4.3,12.7,15,8.5,24c-1.7,3.6-4.5,6.4-7.8,8.1l-3.9-4.8C150,139.5,152.3,137.5,153.6,134.7z"/>
		</g>
		<g>
			<polygon class="st0" points="127.3,153 107.9,143.7 170.4,13 187.7,15 190,22 			"/>
			<polygon class="st0" points="190.9,24.9 193.1,32 147,129.6 178.6,168.6 155.9,187 129.1,153.9 129.1,153.9 			"/>
		</g>
	</g>
</g>
</svg>
