<?xml version="1.0" encoding="utf-8"?>
<!-- Generator: Adobe Illustrator 23.0.3, SVG Export Plug-In . SVG Version: 6.00 Build 0)  -->
<svg version="1.1" id="rts" xmlns="http://www.w3.org/2000/svg" xmlns:xlink="http://www.w3.org/1999/xlink" x="0px" y="0px"
	 viewBox="0 0 200 200" style="enable-background:new 0 0 200 200;" xml:space="preserve">
<style type="text/css">
	.st0{fill:#BF68FF;}
</style>
<g>
	<g>
		<path class="st0" d="M46,90.3c-15.5,0-28,7.4-28,16.5c0,9.1,12.5,16.5,28,16.5s28-7.4,28-16.5C74,97.6,61.5,90.3,46,90.3z M46,117
			c-9.7,0-17.5-4.6-17.5-10.3c0-5.7,7.8-10.3,17.5-10.3s17.5,4.6,17.5,10.3C63.5,112.4,55.7,117,46,117z"/>
		<g>
			<rect x="43" y="16.8" class="st0" width="7" height="92"/>
			<polygon class="st0" points="95,35.7 72.5,43.7 50,51.6 50,35.7 50,19.9 72.5,27.8 			"/>
		</g>
	</g>
	<g>
		<path class="st0" d="M133,106.3c-15.5,0-28,7.4-28,16.5c0,9.1,12.5,16.5,28,16.5s28-7.4,28-16.5C161,113.6,148.5,106.3,133,106.3z
			 M133,133c-9.7,0-17.5-4.6-17.5-10.3s7.8-10.3,17.5-10.3s17.5,4.6,17.5,10.3S142.7,133,133,133z"/>
		<g>
			<rect x="130" y="32.8" class="st0" width="7" height="92"/>
			<polygon class="st0" points="182,51.7 159.5,59.7 137,67.6 137,51.7 137,35.9 159.5,43.8 			"/>
		</g>
	</g>
	<g>
		<path class="st0" d="M80,150.3c-15.5,0-28,7.4-28,16.5c0,9.1,12.5,16.5,28,16.5s28-7.4,28-16.5C108,157.6,95.5,150.3,80,150.3z
			 M80,177c-9.7,0-17.5-4.6-17.5-10.3s7.8-10.3,17.5-10.3s17.5,4.6,17.5,10.3S89.7,177,80,177z"/>
		<g>
			<rect x="77" y="76.8" class="st0" width="7" height="92"/>
			<polygon class="st0" points="129,95.7 106.5,103.7 84,111.6 84,95.7 84,79.9 106.5,87.8 			"/>
		</g>
	</g>
</g>
</svg>
