<?xml version="1.0" encoding="utf-8"?>
<!-- Generator: Adobe Illustrator 23.0.3, SVG Export Plug-In . SVG Version: 6.00 Build 0)  -->
<svg version="1.1" id="圖層_1" xmlns="http://www.w3.org/2000/svg" xmlns:xlink="http://www.w3.org/1999/xlink" x="0px" y="0px"
	 viewBox="0 0 273.3 265.4" style="enable-background:new 0 0 273.3 265.4;" xml:space="preserve">
<style type="text/css">
	.st0{fill:#FFFFFF;}
</style>
<g id="corsair">
	<path class="st0" d="M95.2,55c-13.8-0.7-30.1,8.5-35.3,11.7c8.1,9.7,10.5,30.2,11.2,38.9c14.6-14.7,25.8-15.6,33-13.9
		c-0.3-6.7-1.3-24.1-6.3-36C96.8,55.2,96.1,55,95.2,55 M90.8,106.1c-19.1,4.6-29.7,11.4-32.5,13.3c0.6,3.6,0.8,7.6,0.8,11.6
		c0,21-6,45.2-8.8,55.4c13-10.4,24.8-18,35.1-22.7C88.8,147.3,92.8,124.2,90.8,106.1 M169.1,157.9c3.9-5.2,6.6-10.5,8.4-16.1
		c-5,1.5-10.9,3.8-17.5,7.3C165,151.4,167.8,155.2,169.1,157.9 M135.8,34.7c-15.6-1-33.9,8.6-39.4,11.6c1.5,1.8,2.8,4.1,3.9,6.5
		c0.4,0.8,0.7,1.7,1.1,2.7c0.4,1.1,0.8,2.2,1.1,3.4c3.6,11.4,4.6,25,4.9,31.6c1.3-1.3,2.5-2.4,3.8-3.4c0.6-0.4,1.1-0.8,1.5-1.3
		c0.6-0.4,1.1-0.8,1.5-1.3c9.8-7.6,19.2-10.5,27.9-8.8C142.1,70.5,141.5,49.4,135.8,34.7 M126.7,90.1c-4.5,1.1-8.4,2.4-11.9,3.8
		c-0.6,0.1-1.1,0.4-1.7,0.6c-1.1,0.4-2.1,0.8-3.1,1.3c-0.7,0.3-1.4,0.6-2.1,0.8c-1.3,0.6-2.4,1-3.4,1.5c-0.1,0-0.3,0.1-0.4,0.1
		c-2,1-3.6,1.8-5.2,2.7c-2,1-3.4,2-4.2,2.5c-0.3,0.1-0.6,0.4-0.8,0.6c0,0.4,0.1,0.8,0.1,1.4c0.4,3.8,0.7,7.6,0.7,11.6
		c0,15.3-2.8,32-5.8,44.9c-0.1,0.7-0.3,1.3-0.4,2s-0.3,1.4-0.4,2.1c-1.3,5.3-2.5,10-3.4,13c13.2-10.5,25-18.5,35.5-23.8
		C124.6,137,129.1,110.4,126.7,90.1 M145.5,79.9c-0.7,0.3,2.7-1.1,2.7-1.1 M189,18.4c-2.9-4.9-6.7-7.6-11.2-8
		c-17.7-1.5-38.7,9.7-44.7,13c1.8,2.2,3.5,5,4.8,8.1c0.3,0.6,0.6,1.3,0.8,2c0.3,0.7,0.6,1.4,0.7,2.1c3.1,8.6,4.6,18.5,5.3,26.6
		c0.4,4.2,0.6,8,0.7,10.5c0.3-0.3,0.6-0.6,0.8-0.8c0.6-0.6,1.1-1.1,1.7-1.5c24.8-22.3,40-14,46.8-10.4c0.4,0.3,1,0.6,1.4,0.7
		c0.1-1.3,0.3-3.5,0.3-6.3C196.8,45.1,195.1,28.7,189,18.4 M145.5,79.9c-3.6,1.5-6.7,3.1-9.1,4.3c-2,1.1-3.6,2.1-4.8,2.8
		c-0.8,0.6-1.4,0.8-1.8,1.1c0,0.3,0.1,0.7,0.1,1c0.6,4.3,0.8,8.8,0.8,13.6c0,17.1-3.2,36-6.5,50.5c-0.1,0.7-0.3,1.4-0.4,2.1
		c-0.1,0.7-0.3,1.4-0.4,2.1c-1.4,6.2-2.8,11.2-3.8,14.7c11.9-9.5,22.3-16.7,31.4-22c0.8-0.4,1.7-1,2.4-1.4c0.7-0.4,1.5-0.8,2.2-1.3
		c8.8-4.9,16.4-7.9,22.9-9.5c0.7-0.1,1.3-0.3,2-0.4c0.6-0.1,1.1-0.3,1.8-0.4c7.9-1.5,13.7-1.1,18.1,0.4c7.7,2.5,11.4,7.7,13,11.1
		c9.7-12.6,12.9-27.1,12.9-40.4c0-20.3-7.2-37.9-9-42.2c-31.8,0.6-54.7,7-69.1,12.9 M45.3,244.5l-0.4,6.3c-3.9,1.8-7.2,4.2-16.6,4.2
		c-13.5,0-22.4-8.6-22.4-22.2c0-14.6,10.1-20.9,22.4-20.9c4.5,0,8.8,1.1,13,2.1c0.4,0.1,1.8,0.3,2.4,0.3v11.5h-2.2
		c-0.8-6.9-5.3-11.1-12.3-11.1c-8.8,0-13.7,8-13.7,18.4c0,9.3,5.6,18.9,15.8,18.9c5,0,10.9-2.7,12.9-7.9h1.1 M89.6,233.5
		c0,13.9-7.9,21.7-21.2,21.7c-14.2,0-21.2-7.4-21.3-21.9c0.1-13.7,7.4-21.2,21.7-21.2C82.3,212.1,89.6,219.7,89.6,233.5z
		 M56.8,232.3c0,14.7,5.5,20.3,11.9,20.3c8.3,0,11.4-8.7,11.4-17.4c0-14.6-5.5-20.5-11.9-20.3C61.4,214.7,56.8,219.7,56.8,232.3
		 M95.5,250.8v-34.4l-5.8-1.1v-2.2h19.1c9,0,15.1,2.7,15.1,11.2c0,5.6-4.1,8.6-7,10.2c4.9,12.1,9.4,18.4,12.8,19.2l-0.7,1.5
		l-12.1-2.7c-3.4-5-6.2-10.4-8.7-15.8c-1.4,0.1-2.8,0.1-4.1,0v14l6,1.1v2.2H89.8v-2.2L95.5,250.8z M104.1,233.9c1,0.4,2,0.4,2.9,0.4
		c5.2,0,8.3-3.2,8.3-8.3c0-7.9-3.9-10.4-10.5-10.4H104v18.2 M156,224.8h-2.1c-0.4-5.2-2.5-10-8.4-10c-3.8,0-6.6,2-6.6,6
		c0,10.4,19.5,6.3,19.5,21.5c0,7.6-6.3,12.9-14,12.9c-4.1,0-8.3-1.1-11.9-3.2c0-3.4,0-6.9-0.4-10.2h2.4c0.7,5.2,3.1,10.8,9.5,10.8
		c4.6,0,7.4-2.7,7.4-7.2c0-8.7-18.9-7.3-18.9-20.5c0-8.6,5.5-12.8,13.6-12.8c3.4,0,6.9,1.1,10,2.5v10.2 M157.9,254.2V252l4.8-1.1
		l14.3-38.7h5.2l14.9,38.7l4.8,1.1v2.2h-20.1V252l5.5-1.1l-3.9-10.8h-13l-3.6,10.8l5.5,1.1v2.2H157.9z M171.3,236.8H182l-5.6-14.3
		L171.3,236.8 M218.5,216.5v34.4l5.8,1.1v2.2h-20.2V252l5.8-1.1v-34.4l-5.8-1.1v-2.2h20.2v2.2L218.5,216.5 M233.3,250.8v-34.4
		l-5.8-1.1v-2.2h19.1c9,0,15.1,2.7,15.1,11.2c0,5.6-4.1,8.6-7,10.2c4.9,12.1,9.4,18.4,12.8,19.2l-0.7,1.5l-11.9-2.7
		c-3.4-5-6.2-10.4-8.7-15.8c-1.4,0.1-2.8,0.1-4.1,0v14l6,1.1v2.2h-20.5v-2.2L233.3,250.8z M241.8,233.9c1,0.4,2,0.4,2.9,0.4
		c5.2,0,8.3-3.2,8.3-8.3c0-7.9-3.9-10.4-10.4-10.4h-0.8V233.9"/>
</g>
</svg>
