<?xml version="1.0" encoding="utf-8"?>
<!-- Generator: Adobe Illustrator 23.0.3, SVG Export Plug-In . SVG Version: 6.00 Build 0)  -->
<svg version="1.1" id="圖層_1" xmlns="http://www.w3.org/2000/svg" xmlns:xlink="http://www.w3.org/1999/xlink" x="0px" y="0px"
	 viewBox="0 0 200 200" style="enable-background:new 0 0 200 200;" xml:space="preserve">
<style type="text/css">
	.st0{fill:none;stroke:#BF68FF;stroke-miterlimit:10;}
</style>
<g id="圖層_3">
	<g>
		<g id="圖層_1-2_2_">
			<path class="st0" d="M18.7,115.3l4.3-1.6c1.2-0.4,2.4,0.1,2.9,1.3l23.9,63.3c0.4,1.2-0.1,2.4-1.3,2.9l-4.3,1.6
				c-1.2,0.4-2.4-0.1-2.9-1.3l-23.9-63.3C16.9,117,17.5,115.7,18.7,115.3z"/>
			<path class="st0" d="M29,111.6l12.2-4.6c1.2-0.4,2.4,0.1,2.9,1.3L68,171.5c0.4,1.2-0.1,2.4-1.3,2.9L54.5,179
				c-1.2,0.4-2.4-0.1-2.9-1.3l-23.9-63.3C27.2,113.3,27.8,112,29,111.6z"/>
			<path class="st0" d="M155.8,182.7l-4.3-1.6c-1.2-0.4-1.7-1.7-1.3-2.9l23.9-63.3c0.4-1.2,1.7-1.7,2.9-1.3l4.3,1.6
				c1.2,0.4,1.7,1.7,1.3,2.9l-23.9,63.3C158.3,182.5,157,183.1,155.8,182.7z"/>
			<path class="st0" d="M145.5,179l-12.2-4.6c-1.2-0.4-1.7-1.7-1.3-2.9l23.9-63.3c0.4-1.2,1.7-1.7,2.9-1.3l12.2,4.6
				c1.2,0.4,1.7,1.7,1.3,2.9l-23.9,63.3C147.9,178.9,146.7,179.4,145.5,179z"/>
			<path class="st0" d="M99.6,26.3c34.2,0.1,63,23.2,72.4,55c2.2,11.3,0,18.7-1.7,22.4c-0.3,0.5-0.5,1.1-0.5,1.7
				c0,1.1,2.5,1,3.3,1.1c1.6,0,3.1,0.4,4.5,1.1c2.6,1.3,2.9,1.3,3.3,1.1c1.1-0.5,1.8-3.2-1.6-21.5c-0.6-3.4-1.2-6.2-1.6-8.1l0,0
				c-8.1-36.5-40.7-62.3-78.1-61.9h0.6c-37.4-0.4-69.9,25.5-78.1,61.9l0,0c-0.4,1.9-0.9,4.7-1.6,8.1c-3.3,18.2-2.7,21-1.6,21.5
				c0.5,0.2,0.7,0.2,3.3-1.1c1.4-0.7,2.9-1.1,4.5-1.1c0.8-0.1,3.3,0,3.3-1.1c0-0.6-0.2-1.2-0.5-1.7C28,99.9,25.8,92.5,28,81.3
				c9.4-31.8,38.2-54.9,72.4-55C100.4,26.3,99.6,26.3,99.6,26.3z"/>
		</g>
	</g>
</g>
</svg>
