<?xml version="1.0" encoding="utf-8"?>
<!-- Generator: Adobe Illustrator 23.0.3, SVG Export Plug-In . SVG Version: 6.00 Build 0)  -->
<svg version="1.1" id="圖層_1" xmlns="http://www.w3.org/2000/svg" xmlns:xlink="http://www.w3.org/1999/xlink" x="0px" y="0px"
	 viewBox="0 0 200 200" style="enable-background:new 0 0 200 200;" xml:space="preserve">
<style type="text/css">
	.st0{fill:none;stroke:#BF68FF;stroke-miterlimit:10;}
</style>
<g>
	<g>
		<g id="圖層_1-2_1_">
			<path class="st0" d="M14.9,63.7h170.3c2.2,0,4,1.8,4,4v64.6c0,2.2-1.8,4-4,4H14.9c-2.2,0-4-1.8-4-4V67.7
				C10.9,65.5,12.7,63.7,14.9,63.7z"/>
			<path class="st0" d="M20.8,69.4h9.3c1.1,0,2,0.9,2,2v7.4c0,1.1-0.9,2-2,2h-9.3c-1.1,0-2-0.9-2-2v-7.4
				C18.8,70.3,19.7,69.4,20.8,69.4z"/>
			<path class="st0" d="M20.8,85.5h9.3c1.1,0,2,0.9,2,2v7.4c0,1.1-0.9,2-2,2h-9.3c-1.1,0-2-0.9-2-2v-7.4
				C18.8,86.4,19.7,85.5,20.8,85.5z"/>
			<path class="st0" d="M20.8,101.6h9.3c1.1,0,2,0.9,2,2v7.4c0,1.1-0.9,2-2,2h-9.3c-1.1,0-2-0.9-2-2v-7.4
				C18.8,102.5,19.7,101.6,20.8,101.6z"/>
			<path class="st0" d="M42.5,69.4h9.3c1.1,0,2,0.9,2,2v7.4c0,1.1-0.9,2-2,2h-9.3c-1.1,0-2-0.9-2-2v-7.4
				C40.5,70.3,41.4,69.4,42.5,69.4z"/>
			<path class="st0" d="M42.5,85.5h9.3c1.1,0,2,0.9,2,2v7.4c0,1.1-0.9,2-2,2h-9.3c-1.1,0-2-0.9-2-2v-7.4
				C40.5,86.4,41.4,85.5,42.5,85.5z"/>
			<path class="st0" d="M42.5,101.6h9.3c1.1,0,2,0.9,2,2v7.4c0,1.1-0.9,2-2,2h-9.3c-1.1,0-2-0.9-2-2v-7.4
				C40.5,102.5,41.4,101.6,42.5,101.6z"/>
			<path class="st0" d="M65.3,69.4h9.3c1.1,0,2,0.9,2,2v7.4c0,1.1-0.9,2-2,2h-9.3c-1.1,0-2-0.9-2-2v-7.4
				C63.3,70.3,64.2,69.4,65.3,69.4z"/>
			<path class="st0" d="M65.3,85.5h9.3c1.1,0,2,0.9,2,2v7.4c0,1.1-0.9,2-2,2h-9.3c-1.1,0-2-0.9-2-2v-7.4
				C63.3,86.4,64.2,85.5,65.3,85.5z"/>
			<path class="st0" d="M65.3,101.6h9.3c1.1,0,2,0.9,2,2v7.4c0,1.1-0.9,2-2,2h-9.3c-1.1,0-2-0.9-2-2v-7.4
				C63.3,102.5,64.2,101.6,65.3,101.6z"/>
			<path class="st0" d="M86.9,69.4h9.3c1.1,0,2,0.9,2,2v7.4c0,1.1-0.9,2-2,2h-9.3c-1.1,0-2-0.9-2-2v-7.4
				C84.9,70.3,85.8,69.4,86.9,69.4z"/>
			<path class="st0" d="M86.9,85.5h9.3c1.1,0,2,0.9,2,2v7.4c0,1.1-0.9,2-2,2h-9.3c-1.1,0-2-0.9-2-2v-7.4
				C84.9,86.4,85.8,85.5,86.9,85.5z"/>
			<path class="st0" d="M86.9,101.6h9.3c1.1,0,2,0.9,2,2v7.4c0,1.1-0.9,2-2,2h-9.3c-1.1,0-2-0.9-2-2v-7.4
				C84.9,102.5,85.8,101.6,86.9,101.6z"/>
			<path class="st0" d="M108.5,69.4h9.3c1.1,0,2,0.9,2,2v7.4c0,1.1-0.9,2-2,2h-9.3c-1.1,0-2-0.9-2-2v-7.4
				C106.5,70.3,107.4,69.4,108.5,69.4z"/>
			<path class="st0" d="M169.8,69.4h9.3c1.1,0,2,0.9,2,2v7.4c0,1.1-0.9,2-2,2h-9.3c-1.1,0-2-0.9-2-2v-7.4
				C167.8,70.3,168.7,69.4,169.8,69.4z"/>
			<path class="st0" d="M131.7,69.4h22.2c1.1,0,2,0.9,2,2v7.4c0,1.1-0.9,2-2,2h-22.2c-1.1,0-2-0.9-2-2v-7.4
				C129.7,70.3,130.6,69.4,131.7,69.4z"/>
			<path class="st0" d="M42.5,119.3h53.9c1.1,0,2,0.9,2,2v7.4c0,1.1-0.9,2-2,2H42.5c-1.1,0-2-0.9-2-2v-7.4
				C40.5,120.2,41.4,119.3,42.5,119.3z"/>
			<path class="st0" d="M108.5,85.5h9.3c1.1,0,2,0.9,2,2v7.4c0,1.1-0.9,2-2,2h-9.3c-1.1,0-2-0.9-2-2v-7.4
				C106.5,86.4,107.4,85.5,108.5,85.5z"/>
			<path class="st0" d="M169.8,85.5h9.3c1.1,0,2,0.9,2,2v7.4c0,1.1-0.9,2-2,2h-9.3c-1.1,0-2-0.9-2-2v-7.4
				C167.8,86.4,168.7,85.5,169.8,85.5z"/>
			<path class="st0" d="M130.9,103.9h10.9c0.7,0,1.2-0.5,1.2-1.2v-5.8h11.6c0.7,0,1.2-0.5,1.2-1.2v-9c0-0.7-0.5-1.2-1.2-1.2h-23.8
				c-0.7,0-1.2,0.5-1.2,1.2v16C129.7,103.3,130.3,103.8,130.9,103.9L130.9,103.9z"/>
			<path class="st0" d="M108.5,101.6h9.3c1.1,0,2,0.9,2,2v7.4c0,1.1-0.9,2-2,2h-9.3c-1.1,0-2-0.9-2-2v-7.4
				C106.5,102.5,107.4,101.6,108.5,101.6z"/>
			<path class="st0" d="M20.8,119.3h9.3c1.1,0,2,0.9,2,2v7.4c0,1.1-0.9,2-2,2h-9.3c-1.1,0-2-0.9-2-2v-7.4
				C18.8,120.2,19.7,119.3,20.8,119.3z"/>
			<path class="st0" d="M108.5,119.3h9.3c1.1,0,2,0.9,2,2v7.4c0,1.1-0.9,2-2,2h-9.3c-1.1,0-2-0.9-2-2v-7.4
				C106.5,120.2,107.4,119.3,108.5,119.3z"/>
			<path class="st0" d="M134.4,119.3h9.3c1.1,0,2,0.9,2,2v7.4c0,1.1-0.9,2-2,2h-9.3c-1.1,0-2-0.9-2-2v-7.4
				C132.4,120.2,133.3,119.3,134.4,119.3z"/>
			<path class="st0" d="M152.4,119.3h9.3c1.1,0,2,0.9,2,2v7.4c0,1.1-0.9,2-2,2h-9.3c-1.1,0-2-0.9-2-2v-7.4
				C150.4,120.2,151.3,119.3,152.4,119.3z"/>
			<path class="st0" d="M152.4,103.6h9.3c1.1,0,2,0.9,2,2v7.4c0,1.1-0.9,2-2,2h-9.3c-1.1,0-2-0.9-2-2v-7.4
				C150.4,104.5,151.3,103.6,152.4,103.6z"/>
			<path class="st0" d="M169.8,119.3h9.3c1.1,0,2,0.9,2,2v7.4c0,1.1-0.9,2-2,2h-9.3c-1.1,0-2-0.9-2-2v-7.4
				C167.8,120.2,168.7,119.3,169.8,119.3z"/>
		</g>
	</g>
</g>
</svg>
