<?xml version="1.0" encoding="utf-8"?>
<!-- Generator: Adobe Illustrator 23.0.3, SVG Export Plug-In . SVG Version: 6.00 Build 0)  -->
<svg version="1.1" id="圖層_1" xmlns="http://www.w3.org/2000/svg" xmlns:xlink="http://www.w3.org/1999/xlink" x="0px" y="0px"
	 viewBox="0 0 200 200" style="enable-background:new 0 0 200 200;" xml:space="preserve">
<style type="text/css">
	.st0{fill:none;stroke:#BF68FF;stroke-miterlimit:10;}
</style>
<g>
	<g>
		<g id="圖層_1-2">
			<path class="st0" d="M100,40.6L100,40.6c3.4,0,6.1,2.8,6.1,6.1V66c0,3.4-2.8,6.1-6.1,6.1l0,0c-3.4,0-6.1-2.8-6.1-6.1V46.8
				C93.9,43.4,96.6,40.6,100,40.6z"/>
			<polygon class="st0" points="90.4,19.1 88.9,96.7 98.9,105.9 98.9,123.6 55.8,101.3 55.8,46 			"/>
			<path class="st0" d="M55.8,106l43,22.3v59.9c0,0-37.6-0.8-49.9-47.7C48.9,140.5,59.7,119.7,55.8,106z"/>
			<polygon class="st0" points="109.6,19.1 111.1,96.7 101.2,105.9 101.2,123.6 144.2,101.3 144.2,46 			"/>
			<path class="st0" d="M144.2,106l-43,22.3v59.9c0,0,37.6-0.8,49.9-47.6C151.1,140.5,140.3,119.7,144.2,106z"/>
			<rect x="95" y="11.9" class="st0" width="10" height="22.7"/>
		</g>
	</g>
</g>
</svg>
