<?xml version="1.0" encoding="utf-8"?>
<!-- Generator: Adobe Illustrator 23.0.3, SVG Export Plug-In . SVG Version: 6.00 Build 0)  -->
<svg version="1.1" id="圖層_1" xmlns="http://www.w3.org/2000/svg" xmlns:xlink="http://www.w3.org/1999/xlink" x="0px" y="0px"
	 viewBox="0 0 273.3 265.4" style="enable-background:new 0 0 273.3 265.4;" xml:space="preserve">
<style type="text/css">
	.st0{fill:#FFFFFF;}
</style>
<g id="log">
	<g>
		<g>
			<g>
				<path class="st0" d="M109.3,219c-0.2-0.4,0-0.7,0.4-0.9c0.9-0.2,1.4-0.4,1.4-0.9c0-5.7,0.2-6.1-0.6-6.2
					c-3.7-0.1-7.6,0.2-11.3-0.2h-0.1c-6.8-2.1-14.9,0.1-19.2,5.9c-5.1,6.4-4.6,16.6,1.1,22.4c6.1,6.4,17,7.1,23.9,1.6
					C111.5,235.9,113.4,225.9,109.3,219z M97,236c-4.7,1.7-10.4-1.1-11.9-5.9c-1.6-4.6,1.1-10,5.7-11.5c4.5-1.6,9.9,0.7,11.5,5.1
					C104.6,228.3,102,234.4,97,236z"/>
			</g>
		</g>
	</g>
	<g>
		<g>
			<g>
				<path class="st0" d="M35.7,198.1c0-0.4-0.2-0.6-0.6-0.6c-2.4,0-4.6,0-6.9,0c-0.4,0-0.6,0.2-0.6,0.6c0,14.9,0,29.9,0,44.7
					c0,0.4,0.2,0.6,0.6,0.6c2.4,0,4.6,0,6.9,0c0.4,0,0.6-0.2,0.6-0.6C35.8,227.9,35.8,212.9,35.7,198.1z"/>
			</g>
		</g>
	</g>
	<g>
		<g>
			<g>
				<path class="st0" d="M103.7,245.5c-0.4,0-0.6,0.2-0.6,0.5c-0.1,1.2-0.4,2.6-1,3.7c-3.8,8.1-16.7,6.2-17.5-3.7
					c0-0.4-0.2-0.6-0.6-0.6c-2.4,0-4.7,0-7.1,0c-0.4,0-0.6,0.2-0.6,0.6c0.1,14.6,17.8,21.7,28.7,12.9c4-3.1,6.1-7.9,6.3-12.9
					C111.5,245.3,111.1,245.5,103.7,245.5z"/>
			</g>
		</g>
	</g>
	<g>
		<g>
			<g>
				<path class="st0" d="M71.5,218.5c-3.6-6.3-11.3-9.5-18.3-8.3c-3.2,0.5-6.3,2-8.7,4.1c-6.7,5.7-7.6,16.7-2,23.5
					c8.3,10.8,27.4,7.8,30.9-6.3C74.2,227.2,73.7,222.5,71.5,218.5z M61.3,235c-4.3,3-10.9,1.4-13.3-3.3c-3-5,0.1-12.1,5.8-13.4
					c3.7-1,7.9,0.6,9.9,3.8C66.8,226.2,65.6,232.4,61.3,235z"/>
			</g>
		</g>
	</g>
	<g>
		<g>
			<g>
				<path class="st0" d="M205.4,232.6c-2.7,3-7.1,4.7-10.9,3.2c-4.7-1.5-7.2-7.1-5.6-11.6c1.5-5.3,9.3-9.8,16.6-2.5
					c0.2,0.2,0.6,0.2,0.9,0c1.6-1.6,3.2-3.2,4.8-4.8c0.2-0.2,0.2-0.6,0-0.9c-8.2-9.2-21.7-7.3-27.6,0.6c-5.5,7.1-4.3,18.2,2.8,23.8
					c7.2,5.9,19,5,24.8-2.2c0.2-0.2,0.1-0.6,0-0.9C206.4,232.6,206.1,232,205.4,232.6z"/>
			</g>
		</g>
	</g>
	<g>
		<g>
			<g>
				<path class="st0" d="M149.6,214.3c-7.8,6.8-7.6,20.9,1,27c7.6,5.2,18.7,3.8,25.2-2.6c0.2-0.2,0.2-0.6,0-0.9
					c-5-4.7-5-5.2-5.6-4.6c-6.6,6.3-14.6,4.7-17.2-1.7c-0.5-1.4,0.6-0.7,24.2-0.9c0.4,0,0.6-0.2,0.6-0.6
					C178.5,209.6,159,205.8,149.6,214.3z M168.3,223.8c-5.1,0-10.2,0.1-15.1,0c-0.4,0-0.7-0.5-0.6-0.9c2.6-6.6,9.7-6.8,13.5-4.1
					c1.4,1,2.2,2.5,2.8,4.1C169,223.5,168.8,223.8,168.3,223.8z"/>
			</g>
		</g>
	</g>
	<g>
		<g>
			<g>
				<path class="st0" d="M245.7,225c0-15.9-15-17.7-22.1-11.9c-0.4,0.4-1,0-1-0.5c0-4.8,0-9.7,0-14.5c0-0.4-0.2-0.6-0.6-0.6
					c-2.4,0-4.7,0-7.1,0c-0.4,0-0.6,0.2-0.6,0.6c0,15,0,29.9,0,44.9c0,0.4,0.2,0.6,0.6,0.6c2.4,0,4.7,0,7.1,0c0.4,0,0.6-0.2,0.6-0.6
					c0-5.8,0-11.6,0-17.3c-0.1-9.4,15.1-10.4,14.7,0c0,5.8,0,11.6,0,17.3c0,0.4,0.2,0.6,0.6,0.6c7.4,0,7.7,0.2,7.7-0.6
					C245.7,236.9,245.8,230.9,245.7,225z"/>
			</g>
		</g>
	</g>
	<g>
		<g>
			<g>
				<path class="st0" d="M116.8,196.7c-4.1,1.1-5,7.4-1.4,9.7c3.2,2.4,8.5-0.1,8.5-4.2C124.4,198.4,120.3,195.5,116.8,196.7z"/>
			</g>
		</g>
	</g>
	<g>
		<g>
			<g>
				<path class="st0" d="M122.1,211.1c-2.4,0-4.6,0-6.9,0c-0.9,0-0.5-1.4-0.6,31.7c0,0.4,0.2,0.6,0.6,0.6c2.4,0,4.6,0,6.9,0
					c0.4,0,0.6-0.2,0.6-0.6C122.7,209.6,122.9,211.1,122.1,211.1z"/>
			</g>
		</g>
	</g>
	<g>
		<g>
			<g>
				<path class="st0" d="M142.2,211.1c-3.1,0-3.7,0.2-3.7-0.6c-0.1-9,0.2-9.4-0.6-9.4c-2.4,0-4.6,0-6.9,0c-0.4,0-0.6,0.2-0.6,0.6
					c0,2.8,0,5.8,0,8.7c0,0.4-0.2,0.6-0.6,0.6c-3.1,0-3.7-0.1-3.7,0.6c0,6.2-0.1,6.7,0.6,6.7c1,0,2,0,3.1,0c0.4,0,0.6,0.2,0.6,0.6
					c0,7.9,0,16,0,23.9c0,0.4,0.2,0.6,0.6,0.6c2.4,0,4.6,0,6.9,0c0.4,0,0.6-0.2,0.6-0.6c0-25.3-0.2-24.5,0.6-24.5
					c3.1,0,3.8,0.1,3.8-0.6C142.9,211.6,143.1,211.1,142.2,211.1z"/>
			</g>
		</g>
	</g>
	<g>
		<g>
			<g>
				<path class="st0" d="M217.1,72.6H189c-2.1,0-3.8,1.7-3.8,3.8s1.7,3.8,3.8,3.8h25.9v69.5h-28v-36.1c0-3-2.4-5.3-5.3-5.3h-36.1
					v-28h25.8c2.1,0,3.8-1.7,3.8-3.8s-1.7-3.8-3.8-3.8h-28.1c-3,0-5.3,2.4-5.3,5.3v32.6c0,3,2.4,5.3,5.3,5.3h36.1V152
					c0,3,2.4,5.3,5.3,5.3h32.6c3,0,5.3-2.4,5.3-5.3V78C222.4,74.9,220.1,72.6,217.1,72.6z"/>
			</g>
		</g>
	</g>
	<g>
		<g>
			<g>
				<path class="st0" d="M87.2,83.1c-0.4,2.1,1,4.1,3.1,4.3c2.1,0.4,4.1-1,4.3-3.1c3.6-21.7,22.3-37.9,44.4-38.5
					c2.8-0.1,5.1-2.4,5.1-5.2V7.9c0-1.4-0.6-2.7-1.6-3.7s-2.4-1.5-3.7-1.5C90.5,3.6,50.9,42.8,50.9,92s39.5,88.6,87.8,89.3
					c0,0,0,0,0.1,0c3,0,5.2-2.5,5.2-5.2v-32.6c0-2.8-2.2-5.2-5.1-5.2c-21.6-0.6-40.1-16.4-44.1-37.5c-0.4-2.1-2.4-3.5-4.5-3
					c-2.1,0.4-3.5,2.4-3,4.5c4.5,23.7,24.5,41.9,49.1,43.6v28c-43.1-2-77.8-38.1-77.8-81.6s34.8-79.7,77.9-81.6v28
					C111.9,40.1,91.3,58.6,87.2,83.1z"/>
			</g>
		</g>
	</g>
</g>
</svg>
