<?xml version="1.0" encoding="utf-8"?>
<!-- Generator: Adobe Illustrator 23.0.3, SVG Export Plug-In . SVG Version: 6.00 Build 0)  -->
<svg version="1.1" id="圖層_1" xmlns="http://www.w3.org/2000/svg" xmlns:xlink="http://www.w3.org/1999/xlink" x="0px" y="0px"
	 viewBox="0 0 273.3 265.4" style="enable-background:new 0 0 273.3 265.4;" xml:space="preserve">
<style type="text/css">
	.st0{fill:#FFFFFF;}
	.st1{fill:none;stroke:#FFFFFF;stroke-width:3;stroke-miterlimit:10;}
</style>
<g id="msi">
	<g>
		<path class="st0" d="M75.6,257.8c1.2-3.2,2.3-6.1,3.3-9c2.7-7.1,5.4-14.2,8-21.3c1.7-4.6,0-6.9-4.9-6.6
			c-8.4,0.5-13.7,5.6-16.9,12.7c-3.3,7.3-5.8,15-8.7,22.5c-0.3,0.8-1.2,1.8-1.8,1.8c-6,0.1-12,0.1-18.4,0.1c0.3-1,0.4-1.7,0.7-2.3
			c5.5-14.6,11.1-29.2,16.6-43.8c0.6-1.5,1.3-2,3-1.9c6,0.3,9.5,2.2,12.7,7.4c2.3-1.1,4.6-2.4,7-3.4c6.6-3,13.6-4.4,20.9-3.9
			c5.3,0.4,8.9,2.6,11.6,7.4c0.6-0.3,1.3-0.6,1.9-1c8-4.4,16.4-7.1,25.7-6.4c1.6,0.1,3.3,0.4,4.9,1c6.3,2.3,8.7,7.4,6.4,13.7
			c-3.9,10.6-7.9,21.1-12,31.6c-0.3,0.7-1.3,1.6-1.9,1.7c-5.7,0.1-11.5,0.1-17.2,0.1c-0.3,0-0.6-0.2-1.1-0.3c1.5-4,2.9-7.9,4.4-11.8
			c2.3-6,4.6-12.1,6.9-18.1c1.8-4.8,0-7.2-5.1-6.8c-8.5,0.7-13.7,5.9-16.9,13.2c-3.1,7.1-5.6,14.4-8.3,21.7
			c-0.6,1.6-1.4,2.4-3.3,2.3c-5-0.1-10,0-14.9-0.1C77.3,258,76.6,257.9,75.6,257.8z"/>
		<path class="st0" d="M209.1,212c-0.5,1.3-0.9,2.3-1.3,3.4c-1.2,3.1-1.2,2.8-4.3,2.6c-6.4-0.5-12.8-0.9-19.2-1.1
			c-1.9,0-3.9,0.6-5.6,1.4c-3.8,1.7-4.2,5.7-0.7,7.9c3.3,2,6.9,3.6,10.4,5.4c0.9,0.5,1.9,1,2.8,1.4c8.7,4.4,6.5,12.8,1.5,17
			c-5.1,4.2-11,6.6-17.5,7.3c-10.6,1.3-21.2,0.6-31.7-1.2c-0.3-0.1-0.6-0.1-0.8-0.2c0-0.2-0.1-0.4,0-0.5c1.9-6.1,1.9-5.8,8.2-5.2
			c6,0.5,12,0.4,18,0.5c1.2,0,2.5-0.5,3.7-1c1.9-0.8,3.3-2.2,3.5-4.4c0.2-2.1-1.4-3.3-3-4.1c-4.2-2.2-8.5-4.3-12.7-6.4
			c-8.2-4.2-7-12-1.9-16.7c4.5-4.1,10-6.4,16-7.4c11.1-1.7,22.1-0.9,33.1,0.8C208,211.5,208.4,211.7,209.1,212z"/>
		<path class="st0" d="M232.7,222c-1.8,4.7-3.6,9.4-5.3,14c-2.5,6.7-5.1,13.3-7.5,20c-0.5,1.4-1.2,2-2.8,2c-5.8-0.1-11.6,0-17.7,0
			c1.6-4.2,3-8.1,4.5-12c2.6-6.9,5.2-13.8,7.9-20.6c0.3-0.8,1.4-1.8,2.3-1.9c6.1-0.8,12.2-1.5,18.3-2.1
			C232.4,221.5,232.5,221.7,232.7,222z"/>
		<path class="st0" d="M237.1,210.3c-0.7,1.9-1.4,3.9-2.2,5.8c-0.2,0.4-0.9,0.6-1.5,0.7c-6.1,0.6-12.3,1.2-18.4,1.8
			c-0.1,0-0.3-0.1-0.6-0.3c0.7-1.9,1.4-3.9,2.2-5.7c0.2-0.4,0.9-0.9,1.4-0.9c6.1-0.6,12.3-1.1,18.4-1.6
			C236.5,209.9,236.7,210.1,237.1,210.3z"/>
	</g>
	<path class="st1" d="M234,49.5c-0.8,13.3-2.4,26.6-5.5,39.6c-5.8,24.7-15.6,48.1-33.2,68.8c-14.5,17.1-33.5,29.5-56.7,37.4
		c-1.3,0.4-3.1,0.4-4.4,0c-13.7-4.7-26.1-11.1-37.2-19.3c-13.2-9.7-23.2-21.4-31.4-34.3c-9.3-14.6-15.5-30.1-19.7-46.2
		c-4.6-17.7-6.6-35.6-6.7-53.7c0-2,0.7-3.2,2.8-4.2c15.4-7.8,31.5-14.3,48.2-19.7c13.1-4.3,26.5-7.7,40.2-10.4
		c5.3-1.1,10.2-0.2,15.2,0.7c20.2,3.9,39.5,9.8,58.2,17.3c9.5,3.8,18.5,8.2,27.8,12.4c1.8,0.8,2.4,1.9,2.3,3.6
		C233.8,44.1,234,46.8,234,49.5z"/>
	<g>
		<path class="st0" d="M74,81.2c0.3-1.5,0.6-3.1,1.1-4.6c0.4-1.4,1-2.8,1.4-4.3c0.6-2.2-0.2-3.6-2.6-4.6c-1.3-0.5-2.7-0.9-3.9-1.5
			s-2.2-1.3-3.2-2c-1-0.6-2-1.3-2.9-2c-0.5-0.3-1.3-0.7-1.3-1.2c-0.2-3.4-2.1-5.2-6.2-5c3.4-1.6,8.5-0.1,9.6,2.8
			c1,2.5,3.4,3.2,5.7,4.2c0.2-0.1,0.4-0.2,0.6-0.3c-0.4-0.8-0.7-1.7-1.3-2.4c-2.1-2.7-3.2-5.4-1.3-8.6c0.2-0.4-0.3-1.3-0.7-1.6
			c-0.5-0.4-1.3-0.5-2.1-0.7c2.8-0.9,7.1,1.5,7.3,3.9c0,0.2,0.1,0.5,0,0.6c-3.2,2.6,0.1,4.6,1.3,6.9c0.1-1.1,0.1-2.2,0.2-3.3
			c0.2-2.3,0.6-2.6,3.3-2.6c0.4,0,1.1-0.9,1-1.2c-0.3-0.8-1-1.6-1.5-2.3c0.1-0.1,0.3-0.3,0.4-0.4c1.3,1.2,2.9,2.2,3.9,3.6
			c1.3,1.8,0.3,3.5-2.1,3.9c-2.3,0.4-2,2.1-1.7,3.2c0.3,1.2,1.1,2.5,2.2,3.1c0.7,0.4,2.6-0.3,3.4-1c2.3-2,4.3-4.3,6.5-6.4
			c0.2,0.1,0.4,0.2,0.5,0.3c-1.7,0.5-3.5,1-5.2,1.6c4.8-4.5,10.7-7.3,17.2-9c6.4-1.7,13-2.7,19.5-4c-2.3-0.3-4.9-0.7-7.5-1.1
			c0-0.1,0-0.2,0-0.4c7-1.2,14-2.5,20.5-3.6c-3.3-3.1-6.5-6.2-9.7-9.2c0.2-0.2,0.3-0.4,0.5-0.6c6.7,3.8,13.6,7.1,21.5,8.8
			c-6.8-4.4-12.8-9.4-15.6-16.8c0.6,0.5,1.2,1,1.7,1.5c6.5,6,13.8,11,22.7,13.9c2.8,0.9,5.5,1.2,8.5,0.7c2.1-0.4,4.5,0.3,6.7,0.8
			c0.7,0.1,1.3,1.2,1.6,1.9c1,2.5,2.2,4.8,6,4.5c0.4,0,1,0.2,1.1,0.5c1.1,1.7,2.5,1.8,4.4,1.1c0.5-0.2,1.3,0,1.8,0.3
			c1.7,1,3.3,2.1,4.9,3.3c0.9,0.6,1.6,1.4,2,2.4c-1.2-0.5-2.3-0.9-3.7-1.5c-0.5,2.5,0.2,5.1-2.1,7.3c-0.5-1.6-1-3-1.5-4.5
			c-1.9,1-3.7,2-5.7,3.1c0.1-0.6,0.1-0.8,0.2-1c0.3-0.7,0.6-1.5,1-2.2c-1.1-0.2-2.2-0.7-3.1-0.5c-2.1,0.5-4,1.3-6,2
			c-1.8-2.1-2.7-2.4-4.7-1.1c-1.1,0.7-1.3,1.5-0.1,2.2c0.8,0.5,1.9,0.7,2.9,0.9c1.5,0.4,3.2,1.1,4.6,0.9c3.7-0.5,3.9,2.4,5.4,3.8
			c0.9,0.8,1.5,0.8,2.2,0.1c0.7-0.6,1.1-1.4,1.6-2.2c1.7,2.1,3.5,4.4,1.5,7c-0.9,1.2-2.3,2.1-3.9,3.4c-0.5-3.8-1.2-4.3-5-3.8
			c-1.5,0.2-3,0.4-5.1,0.7c1.7-1.3,2.9-2.2,4.3-3.3c-2.8-1.3-5.1-2.4-8-2.3c-1.1,0-2.2-0.1-3.3,0c-1.5,0.1-3.2,0.1-4.5,0.6
			c-3.7,1.3-7.8,0.6-10.3-2.1c-2.1-2.2-1.5-5.4,1.4-7.1c0.8-0.5,1.6-0.9,2.6-1.4c-4.5,0-5.8,1-7.7,5.7c-2.1-0.4-4.3-0.8-6.5-1.1
			c-11.9-1.5-23.4-0.9-34.3,4c-11.8,5.3-18.4,14.2-21.9,25c-3.9,11.3-1.4,22.1,6.1,32.2c0.4,0.5,0.7,1,0.8,1.7
			c-7-4.7-11.5-11.1-15.1-18.4c-0.4,0.7-0.6,1.1-0.8,1.5s-0.3,0.8-1,1.4c-0.4-0.8-0.9-1.6-1.1-2.5c-0.9-3.7-0.1-7.3,1.1-10.8
			c1.7-4.8,3.7-9.5,5.7-14.6c-2,1.4-3.8,2.7-5.5,4C74.4,81.3,74.2,81.3,74,81.2z M171.8,46.7c0.2-0.2,0.3-0.4,0.5-0.6
			c-0.3-2.2-1.1-2.6-5.2-1.9C168.7,45.1,170.3,45.9,171.8,46.7z"/>
		<path class="st0" d="M168.2,159.1c-3.9-0.3-6.4-2.6-7.8-7.1c-0.8,0.4-1.6,0.6-2.3,1c-1.2,0.8-2.3,1.6-3.5,2.4
			c-2.8,1.9-5.8,2.8-9.4,2c-2.2-0.5-2.3-0.2-2.4,1.8c0,1.1-0.5,2.2-1.1,3.2c-0.9,1.5-2.1,3-3.2,4.6c-2.5-3.4-1.6-6.7,0.6-10.5
			c-1.8,0.3-3.2,0.3-4.3,0.7c-3.2,1-5.7,0.7-7.5-2.1c-0.2-0.3-0.8-0.5-1.7-1.1c0.3,4-3.4,4.7-5.9,6.4c-1,0.7-1.9,1.6-2.9,2.4
			c-1.5-2.8-0.1-5.8,5.1-10.6c-2.3-0.4-4.6-0.4-6.3-1.2c-1.6-0.8-2.6-2.5-4-4c-0.9,3.2-4.5,3.1-7.3,4.3c-1.4,0.6-2.8,1.4-4.5,2.3
			c0.8-5.1,3.8-8.5,9.6-10.1c-2.5-1.8-4.8-3.1-6.6-4.8c-2.2-2-0.1-4.5,0-6.8c-0.5,0-0.8,0-0.8,0c-1.3,2.8-4.4,3.1-7.1,4.1
			c-2.2,0.8-4.2,2-6.3,3c-0.4-4.8,3.8-9.3,11-11.1c-1.4-0.6-2.5-1.1-3.2-1.5c1.3-3.3,2.6-6.5,3.7-9.9c1.2-3.8,4.8-4.4,8.5-5.1
			c0.5-0.1,1-0.1,1.6-0.1c2.8-0.2,5.6-0.1,7,2.4c1.5,2.6,1.2,5.2-0.5,7.6s-4.3,3.1-7.3,2.9c-2.8-0.2-4.3-1.9-3.6-4.2
			c0.7,0.4,1.3,0.8,2.1,1.1c1.4,0.5,2.9,0.7,3.7-0.7c0.8-1.5-0.4-2.3-1.8-2.8c-2.7-0.9-7,0.9-7.9,3.3c-0.7,1.9,0.4,3.8,2.6,4.5
			c4.3,1.4,8.2,0.5,11.8-1.9c0.6-0.4,1.2-0.9,2.3-1.6c0,1.6,0,2.7,0,3.9c0,1.3,0.2,2.7,1.8,3c1.4,0.3,3.4,0.4,4.4-0.3
			c1.2-0.8,1.6-2.4,2.3-3.8c0.1-0.2-0.5-0.7-0.9-1c-1.6-1.5-1.4-3.4,0.6-4.3c1.7-0.8,3.7-1.2,5.7-1.4c-1,0.8-2.1,1.7-3.3,2.6
			c3.7,1.5,3.9,2.2,2.1,5c-0.5,0.8-1.1,1.6-1.8,2.6c4.6-1.3,7-3.9,5.8-5.8c2.2-2.7,7.6-3.2,10.4-0.9c-0.6-0.1-0.9-0.1-1.2-0.2
			c-3.2-0.6-3.3-0.4-3.9,2.3c-0.7,3.2-3.6,4.6-6.6,5.9c-0.9,0.4-1.8,1-2.5,1.7c2.8,0.6,5.4,1,7.9-0.7c3.3-2.3,9-1.6,11.1,1.6
			c-0.7-0.3-1.3-0.4-1.8-0.6c-2.9-1-4.6-0.7-6.5,1.5c-1,1.2-2,1.8-3.7,1.4c-0.6-0.2-1.6,0-2.2,0.3c-2.2,1.1-4.4,1-6.7,0.4
			c-1.5-0.4-3.1-0.5-4.6-0.5c-3.2,0-4.6,1.8-3.7,4.4c2.2,5.8,7.1,8.8,13.8,9.4c11.8,1.1,22.9-1.1,33.2-6.2c4.5-2.2,7.3-5.8,9.9-9.6
			c3.5-5.2,6.6-10.5,8.3-16.4c0.7-2.2,1-4.5,1-6.7c0-4.4-3-7.4-8-7.6c-3.9-0.2-7.9,0.2-11.9,0.5c-0.6,0-1.3,0.8-1.5,1.4
			c-0.4,1.3-0.2,2.7,1.4,3.2c1.8,0.6,3.7,0.8,5.6,1.1c0.7,0.1,1.4,0,2.6,0c-8.7,6.3-24.8,1.6-27.5-7.7c0.5,0.5,0.9,1,1.4,1.5
			c2.8,2.6,5.9,4.6,10.2,4.6c1.5,0,2.7-0.4,2.8-1.9c0.1-1.3,0-2.5-2-3c-4.6-1.1-7.6-3.5-8-7.9c0-0.3,0-0.5,0-0.8
			c0-0.1,0.1-0.2,0.4-0.7c0.4,0.9,0.6,1.5,0.9,2.1c0.8,2,2.2,3.4,4.3,4.2c3.7,1.4,8.3-0.5,8.9-3.9c0.1-0.8-0.6-2.2-1.4-2.6
			c-2.3-1.1-4.9-1.8-7.4-2.7c-0.8-0.3-1.7-0.4-2.8-0.7c8.6-1.8,20,2.5,21.8,8.6c-1.8-0.1-3.7-0.3-5.5-0.4c-0.6,0-1.4-0.1-1.7,0.1
			c-0.8,0.6-1.3,1.4-1.9,2.1c0.7,0.3,1.5,0.8,2.2,0.8c2.9-0.1,5.8-0.5,8.7-0.7c4.5-0.3,8.7,0.2,11.3,3.7c2.6-1.5,5.1-2.9,7.6-4.3
			c0.6,2.6-0.8,5-3.5,5.6c-2.1,0.5-2.6,1.3-1.7,2.9c1,1.8,0.3,3.4-0.7,5c-0.7,1.2-1.2,2.5-1.8,3.9c3.5-0.5,6.5-1,9.8-1.5
			c-1.3,3.1-4.3,4.7-7.7,4.3c-1.9-0.2-2.7,0.2-3,1.9c-0.5,3.3-2.1,6.2-5,8.5c-0.7,0.5-1.1,1.3-1.8,2.1c3.7,0.7,7,1.3,10.3,1.8
			c-1.7,2.4-5.9,3.4-9.3,2.2c-3-1-3-1-3.9,1.7c-0.5,1.4-1,2.7-1.3,4.1c-0.8,4.5-4.6,6-9,7c-1.4,0.3-2.9,0.6-4.3,1
			c-0.9,0.3-1.8,1-0.7,1.7c1.6,1,2,2.3,2.4,3.8C166.9,156.7,167.6,157.8,168.2,159.1z"/>
		<path class="st0" d="M164.3,74.3c-14.6,10.9-30.8,16.7-50.5,11.3c6.1,3.7,12.9,5.1,20.2,5s14.1-2,20.9-4.8
			c-3.1,3.6-14.5,7.7-22.2,7.9c-8.4,0.2-15.8-2.3-23.1-5.4c-0.2,0.1-0.4,0.3-0.6,0.4c0.7,0.9,1.2,1.9,2,2.6c4.8,3.8,10.6,6,17,7
			c3.4,0.5,6.9,0.5,10.3,0.8c-6.2,1.2-12.2,0.8-18.3-0.5c-6.2-1.3-10.8-5-15.6-8.3c-0.2,0.3-0.5,0.5-0.7,0.8
			c3.9,7,9.1,12.9,18.2,15.5c-5.6,1.6-16.2-5.7-23.7-15.8c0.6,1.8,1.1,3.6,1.9,5.3c2.4,4.6,6,8.5,10.4,11.9c0.5,0.4,0.8,0.9,1.2,1.3
			c-0.6,0.3-1.1,0.8-1.8,1c-2.2,0.5-4.5,0.9-6.8,1.3c-2.2,0.4-3.5,1.6-4.2,3.4c-0.9,2.2-1.8,4.4-2.7,6.6c-0.2,0.4-0.5,0.7-1.1,1.5
			c-1.2-2-2.4-3.7-3.3-5.6c-3.7-7.3-5.9-14.8-5.7-22.9c0.4-13.9,11.7-28,26.5-33.1c0.2-0.1,0.4-0.1,0.9-0.1
			c-2.3,2.5-4.6,4.7-6.6,7.2c-1.8,2.3-5.2,4.1-3.8,8.3c1.8-1.5,3.3-2.7,4.9-4c3.1,5.1,8.8,5.8,14.4,5.8c11.9,0,23.1-2.6,33.2-8.2
			c2-1.1,3.7-2.5,6-3.6c-0.3,0.4-0.6,0.9-0.9,1.3c-6.5,6.7-15,10.6-24.6,12.3c-5.7,1-11.6,1-17.3,1.4c-0.9,0.1-1.9,0-2.9,0
			c-0.1,0.2-0.1,0.4-0.2,0.5c1.3,0.4,2.5,0.9,3.8,1.1c11.2,2,21.9,0.3,32-3.9c4.2-1.7,8.2-3.9,12.3-5.9
			C164.1,73.9,164.2,74.1,164.3,74.3z"/>
	</g>
</g>
</svg>
