<?xml version="1.0" encoding="utf-8"?>
<!-- Generator: Adobe Illustrator 23.0.3, SVG Export Plug-In . SVG Version: 6.00 Build 0)  -->
<svg version="1.1" id="圖層_2" xmlns="http://www.w3.org/2000/svg" xmlns:xlink="http://www.w3.org/1999/xlink" x="0px" y="0px"
	 viewBox="0 0 200 200" style="enable-background:new 0 0 200 200;" xml:space="preserve">
<style type="text/css">
	.st0{fill-rule:evenodd;clip-rule:evenodd;fill:#235091;}
	.st1{fill-rule:evenodd;clip-rule:evenodd;fill:#F5B67E;}
	.st2{fill-rule:evenodd;clip-rule:evenodd;fill:#F6C085;}
	.st3{fill-rule:evenodd;clip-rule:evenodd;fill:#F8C997;}
	.st4{fill-rule:evenodd;clip-rule:evenodd;fill:#3E3B3A;}
	.st5{fill-rule:evenodd;clip-rule:evenodd;fill:#E5B17D;}
	.st6{fill-rule:evenodd;clip-rule:evenodd;fill:#5A5858;}
	.st7{fill-rule:evenodd;clip-rule:evenodd;fill:#D6825B;}
</style>
<g>
	<path class="st0" d="M86,137.8c0,0,13.3-6.5,28,0l5.6,20.4l-12.9,6.1l-18-7l-5-14l1-5L86,137.8z"/>
	<path class="st1" d="M100.2,129.4h-9.7v6.1c0,3.2-14.6,7.4-17.7,8.3c-9.1,15.8,17.4,25,25.8,37.5h2.5h2.5
		c8.4-12.5,32.1-21,24.5-37.5c-3-1-18.2-5.1-18.2-8.3v-6.1H100.2z"/>
	<g>
		<path class="st2" d="M71.8,84.1c1.6,7.2-1.6,13.2-7.1,14.5C59.2,99.9,53.6,96,52,88.8c-1.6-7.2,1.5-14.1,7-15.4
			C64.4,72.1,70.2,76.9,71.8,84.1z"/>
		<path class="st2" d="M130.8,84.1c-1.6,7.2,1.6,13.2,7.1,14.5c5.5,1.3,11.1-2.6,12.7-9.8c1.6-7.2-1.5-14.1-7-15.4
			C138.2,72.1,132.4,76.9,130.8,84.1z"/>
	</g>
	<path class="st3" d="M101.3,22.9l-0.1,0c-2.9-0.1-5.7-0.2-5.7-0.2l0,0.5c-0.4,0-0.6,0-0.6,0c-11.6,0.5-22.5,6.7-29.4,16.2
		c-7,9.5-7.9,21.5-7.4,32.9c1.4,29.4,17.9,62.5,43.2,62.7c25.3-0.2,41.8-33.3,43.2-62.7c0.6-11.5-0.4-23.4-7.4-32.9
		c-7-9.5-17.9-15.7-29.4-16.2c0,0-0.2,0-0.6,0l0-0.5c0,0-2.8,0.1-5.7,0.2L101.3,22.9z"/>
	<path class="st4" d="M119.3,34.3c-0.3,1.6,0,10.3,9.9,23.6c10,13.3,10.7,14.4,10.7,14.4s0,23,1.3,20.2c1.3-2.8,3.9-20.2,4-21.3
		c0-1.1,1.9-11.2-0.7-21.6c-2.5-10.4-5.7-14.3-10.2-16.1C130,31.9,119.3,34.3,119.3,34.3z"/>
	<path class="st4" d="M63.7,62.4c-1.7,2-7.3,6.7-7.3,6.7c1.7,7.9,3.1,22.5,5,23.7C62.2,90.6,62.9,76.2,63.7,62.4z"/>
	<path class="st4" d="M140,72.3c0.5-7.6,4.3-24.9,2.4-29.6c-5.5-13.6-15.6-19.2-32.5-20.8c-5.2-0.5-9.5-0.1-9.5-0.1
		C110.1,37.8,118.3,59.1,140,72.3z"/>
	<path class="st4" d="M125.9,41.7c-7,20.5-50.3,6-69.4,28.8C44.5,43,78.3-3.2,118.3,23.9L125.9,41.7z"/>
	<path class="st4" d="M81.6,47.6c-0.4,12-13.1,8.7-16.5,23.3c-5.2-13.8,0.4-42.7,13.2-32.2L81.6,47.6z"/>
	<path class="st4" d="M103.1,43.8c-1.2,12-24.8,9.3-31.8,24C62.1,54.3,73.9,25,97.3,35L103.1,43.8z"/>
	<g>
		<path class="st4" d="M79.4,89.7c1.8,0,3.3-1.5,3.3-3.3c0-1.8-1.5-3.3-3.3-3.3c-1.8,0-3.3,1.5-3.3,3.3
			C76.1,88.2,77.6,89.7,79.4,89.7z"/>
		<circle class="st4" cx="123.2" cy="86.3" r="3.3"/>
	</g>
	<path class="st5" d="M94.4,103.3c0,0,0,0,0-0.1c0-0.2,0.1-0.3,0.3-0.5c1.4-2.6,4.1-10.4,5.3-18.9c1.4,0.1-1.3,14.5-2.5,17.9
		c1.2-0.2,2.6-0.3,4.2-0.3c4,0,7.2,0.8,7.2,1.8c0,1-3.2,1.8-7.2,1.8C97.8,105,94.6,104.2,94.4,103.3z"/>
	<path class="st4" d="M111.1,73.7c-2,0.8,1.3-4.6,11.1-4.8c11.4-0.2,14.8,5.2,10.3,3.6C122.9,69.2,114.3,72.4,111.1,73.7z"/>
	<path class="st4" d="M91.5,73.7c2,0.8-1.3-4.6-11.1-4.8c-11.4-0.2-14.8,5.2-10.3,3.6C79.7,69.2,88.3,72.4,91.5,73.7z"/>
	<path class="st6" d="M131.9,75.9c4.8,0.5,6.5,2.6,6.3,7.5c-0.5,9.8-3.7,15.1-13.6,16.5c-9.2,1.3-14.7-2.7-16.5-12.4
		c-0.6-3.2-0.4-7,2.8-8.9C115.9,75.6,125.8,75.3,131.9,75.9L131.9,75.9z M70.8,75.9L70.8,75.9c-4.8,0.5-6.5,2.6-6.3,7.5
		c0.5,9.8,3.7,15.1,13.6,16.5c9.2,1.3,14.7-2.7,16.5-12.4c0.6-3.2,0.4-7-2.8-8.9C86.8,75.6,76.9,75.3,70.8,75.9L70.8,75.9z
		 M97.4,79.5L97.4,79.5c-0.5-0.1-1-0.3-1.3-0.8c-0.5-1-1.4-1.7-2.4-2.3c-4.5-2.6-17.4-2.9-22.5-2.9c0,0-4.6,0.1-6.8,0.2
		c-1.8,0.1-3.3,0.3-5,0.6c-0.3,0.2-0.5,0.6-0.4,1c0,1.5,0.1,3,0.3,4.5c0,0.3,0.1,0.5,0.4,0.6c1,0.5,1.5,1.4,1.7,2.5
		c0.9,4.5,2.1,9.1,4.7,12.9c1.3,1.9,3.1,3.3,5.3,4.2c5.6,2.4,14,2.9,19.2-1.2c2.5-2,4.5-6.4,5.5-9.3c0.6-1.7,1.1-3.4,1.4-5.1
		c0.1-0.4,0.1-0.7,0.2-1.1c0.1-0.5,0.2-0.7,0.8-0.7c2.6,0.1,3.4,0.1,5.9,0c0.6,0,0.7,0.2,0.8,0.7c0,0.4,0.1,0.8,0.2,1.1
		c0.4,1.7,0.9,3.4,1.4,5.1c1,2.9,3,7.3,5.5,9.3c5.1,4,13.6,3.6,19.2,1.2c2.1-0.9,4-2.2,5.3-4.2c2.6-3.8,3.8-8.4,4.7-12.9
		c0.2-1.1,0.7-2,1.7-2.5c0.2-0.1,0.4-0.4,0.4-0.6c0.2-1.5,0.2-3,0.3-4.5c0-0.4-0.1-0.8-0.4-1c-1.7-0.4-3.2-0.6-5-0.6
		c-2.2-0.1-6.8-0.2-6.8-0.2c-5.1,0-18,0.4-22.5,2.9c-1,0.6-1.8,1.3-2.4,2.3c-0.3,0.6-0.7,0.8-1.3,0.8C102.7,79.9,100,79.9,97.4,79.5
		z"/>
	<path class="st7" d="M115.6,110.9c-3.1,3.9-8.7,6.6-15.2,6.6c-6.5,0-12.1-2.6-15.2-6.6c3.7,2.7,9,5.5,15,5.5
		C106.3,116.4,111.9,113.7,115.6,110.9z"/>
	<g>
		<path class="st0" d="M81.5,158.7c-0.9-0.7-21.8-10.5-21.8-10.5c-9.3,3.1-11.4,23.9-12.3,36.2h22.2L81.5,158.7z"/>
		<path class="st0" d="M118.5,158.7c0.9-0.7,21.8-10.5,21.8-10.5c9.3,3.1,11.4,23.9,12.3,36.2h-22.2L118.5,158.7z"/>
		<path class="st0" d="M100,158.9c-16.2-1.3-13.8-21.3-14-21.4c-5.2,2.4-24.2,8.8-26.4,10.7c1.7,3.8,4.3,19.4,6.6,36.1H100h33.8
			c2.3-16.7,4.9-32.3,6.6-36.1c-2.1-1.8-21.2-8.3-26.4-10.7C113.8,137.7,116.2,157.7,100,158.9z"/>
	</g>
</g>
<g>
</g>
<g>
</g>
<g>
</g>
<g>
</g>
<g>
</g>
<g>
</g>
<g>
</g>
<g>
</g>
<g>
</g>
<g>
</g>
<g>
</g>
<g>
</g>
<g>
</g>
<g>
</g>
<g>
</g>
</svg>
