<svg id="圖層_1" data-name="圖層 1" xmlns="http://www.w3.org/2000/svg" viewBox="0 0 200 200"><defs><style>.cls-1{fill:#443d47;}.cls-1,.cls-2,.cls-3,.cls-4,.cls-5,.cls-6,.cls-7,.cls-8,.cls-9{fill-rule:evenodd;}.cls-2{fill:#f5b67e;}.cls-3{fill:#4d4351;}.cls-4{fill:#f6c085;}.cls-5{fill:#f8c997;}.cls-6{fill:#a95c40;}.cls-7{fill:#3e3b3a;}.cls-8{fill:#d6825b;}.cls-9{fill:#e5b17d;}</style></defs><title>player</title><path class="cls-1" d="M81.51,159.37c-.93-.7-21.79-10.52-21.79-10.52-9.28,3.07-11.36,23.91-12.31,36.19H69.59Z"/><path class="cls-1" d="M118.47,159.37c.93-.7,21.78-10.52,21.78-10.52,9.29,3.07,11.37,23.91,12.31,36.19H130.38Z"/><path class="cls-2" d="M100,126H90.2v6.18c0,3.84-.63,3-4.22,5,0,0-3.46,2.84-4.51,3.18,4.35,14,7.49,32,16,44.64h5.05c8.51-12.63,11.65-30.64,16-44.64-1.05-.34-4.51-3.18-4.51-3.18-3.59-2-4.23-1.2-4.22-5V126Z"/><path class="cls-3" d="M100,159.66c-16.16-1.28-13.83-22.28-14-22.39C80.76,139.65,61.73,147.1,59.6,149,61.33,152.73,64,168.3,66.22,185h67.54c2.27-16.74,4.89-32.31,6.62-36.09-2.14-1.85-21.16-9.3-26.38-11.68C113.82,137.38,116.15,158.38,100,159.66Z"/><path class="cls-4" d="M126.18,82.42c-1.4,8,3.32,14.59,10.55,16a13,13,0,0,0,15.61-10.85c1.4-8-3.32-15.58-10.54-17S127.58,74.45,126.18,82.42Z"/><path class="cls-4" d="M75.76,82.42c1.4,8-3.32,14.59-10.55,16A13,13,0,0,1,49.6,87.59c-1.41-8,3.32-15.58,10.54-17S74.36,74.45,75.76,82.42Z"/><path class="cls-5" d="M137,35C130,25.42,119,19.13,107.29,18.66l-.61,0,0-.46-5.76.23-5.76-.23,0,.46-.61,0C82.91,19.13,71.91,25.42,64.85,35s-8,21.68-7.44,33.25c.42,8.74,2,22.86,2.4,31.6,11.23,42,71.79,42.69,82.26,0,.43-8.74,2-22.86,2.4-31.6C145,56.69,144.09,44.6,137,35Z"/><path class="cls-6" d="M65.18,51.11c-.56,1.21,2.65-10.92,9.69-11.13,7.36-.22,53.14,2.57,55.48-.5,7.76,9.82,13.42,48.75,13.86,48.66,1-.2,1.15-4,1.26-4.83a135.14,135.14,0,0,0,.93-17.41c0-10.67,3.09-31.22-16.22-44C118.31,14,93.76,13.22,80.1,17.68c-9.52,3.1-18.65,11.19-22,20.62-3.72,10.35-3.63,18.44-2.4,38.93.13,2.23.39,4.45.7,6.66a43,43,0,0,0,.75,4.4C59.05,96.1,59.23,60.34,65.18,51.11Z"/><path class="cls-6" d="M137.47,31.41C136,46.37,116.58,58,102.17,58l4.2-4c-16.19,4.93-25.23,1.57-25.2,1.57.58.12,6.71-2.74,6.71-2.74-9.21.28-18.51.41-25.64-6.26l10.29-18.3Z"/><path class="cls-7" d="M78.83,89a3.39,3.39,0,1,0-3.38-3.38A3.39,3.39,0,0,0,78.83,89Z"/><path class="cls-7" d="M123.05,89a3.39,3.39,0,1,0-3.38-3.38A3.39,3.39,0,0,0,123.05,89Z"/><path class="cls-6" d="M67.19,76.08C66,74.3,71.73,73,77.66,72.54c9.94-.71,15.64,3.74,10.85,3.9C84.93,76.57,67.55,76.6,67.19,76.08Z"/><path class="cls-6" d="M132.72,76.34c1.31-1.73-4.41-3.29-10.32-4-9.92-1.09-15.78,3.13-11,3.48C115,76.14,132.34,76.85,132.72,76.34Z"/><path class="cls-8" d="M112.14,109.55c-2.07,11.62-20.8,11.62-22.87,0C94.86,110.84,105.31,110.84,112.14,109.55Z"/><path class="cls-9" d="M93.41,102.71s0,0,0-.1a.66.66,0,0,1,.28-.49c1.39-2.68,4.12-10.48,5.38-19.07,1.37.09-1.37,14.61-2.54,18.08a24.77,24.77,0,0,1,4.2-.33c4,0,7.33.81,7.33,1.81s-3.28,1.81-7.33,1.81S93.63,103.66,93.41,102.71Z"/></svg>