<?xml version="1.0" encoding="utf-8"?>
<!-- Generator: Adobe Illustrator 23.0.3, SVG Export Plug-In . SVG Version: 6.00 Build 0)  -->
<svg version="1.1" id="圖層_1" xmlns="http://www.w3.org/2000/svg" xmlns:xlink="http://www.w3.org/1999/xlink" x="0px" y="0px"
	 viewBox="0 0 273.3 265.4" style="enable-background:new 0 0 273.3 265.4;" xml:space="preserve">
<style type="text/css">
	.st0{fill:#FFFFFF;}
</style>
<g id="razer">
	<g>
		<path class="st0" d="M234.7,12.8l-3-0.7l1.5-2.7l-2.2,2.5l-5,2.1c-0.4-0.5-1.2-0.8-2.3-0.5c-3,0.8-3.1-0.9-6.5,0.4
			c-0.7,0.3-0.5-0.3-2.6,0.4c-1.5,0.5-2.5,3-3.5,3.2c-9.8,2.1-5.9,10.3-4.5,12c1.7,2.1,0.3,2.8-0.5,2c-1.2-1.2-2.6-3.1-5.3-5.8
			c-9.4-9.3-26.9,0.2-22.9,14.6c3.7,13.6,18.5,27.1,24.7,33.3c5.6,5.7,15.3,21.3,2.7,27.1c-4.3,2-8.1,2.1-11.1,1.3
			c4.4-7.3,4.2-16.3-1.1-21.8c-7.2-7.5-12.4-3.4-12.4-3.4c8.4,0,18.9,10.5,10.2,22c-0.4,0.5-0.7,0.9-1.1,1.3
			c-3.7-2.2-6.4-5.5-8.2-7.3c-0.8-0.8-8.2-10.1-17.2-10c0.8-9.7-6.2-19.6-15.8-24.9c-1.3-0.7-2.6-1.3-4-1.7
			c-0.9-7.3-4.5-15.4-15.6-18.6c-16.9-4.8-24.1,7.9-26.8,15.2c-2.3,6.4-8.5,34.9-9.6,39.5c-1,4.4-7.2,12.3-13.1,7.5
			c-4.6-3.7-1.7-12-1-15.2c0.7-3.5-2.3-7.7-6.6-7.1c-5.1,0.8-6,5.4-6.6,6.9c-1.2,3.2-4.1,1.6-4.7,1.2c-0.9-0.6-1.4-3.1-2.8-3.9
			c-2-1.1-1.9-0.5-2.5-0.9c-3.1-1.9-3.5-0.3-6.3-1.7c-0.9-0.4-1.6-0.4-2.1-0.1c-0.2,0.1-0.3,0.2-0.4,0.4l-4.4-2.8l-1.8-2.8l1.1,2.9
			l-3.1,0.3l3.3,0.5l4.4,2.8c-0.2,0.7-0.1,1.6,0.9,2.4c2.4,2,1.1,3,4.1,5.1c0.6,0.4,0,0.6,1.8,1.9c1.3,0.9,3.9,0.3,4.7,1
			c7.4,6.7,11.8-1.3,12.4-3.3c0.7-2.6,2.1-1.8,1.9-0.8c-0.3,1.6-1,3.9-1.6,7.7c-2.1,13,15.7,21.7,25.3,10.1
			c9-10.9,11.2-30.8,12.7-39.5c1.4-7.9,8.4-24.9,20.5-17.9c4.1,2.4,6.4,5.3,7.6,8.4c-8.5,0.6-15.7,6.2-17.1,13.5
			c-1.9,10.1,4.6,12,4.6,12c-4.9-6.8-2.4-21.5,11.9-21.1c0.6,0,1.2,0.1,1.7,0.1c0.4,4.3-0.7,8.4-1.1,10.8c-0.2,1.1-3.3,11.7,1.4,19
			c-8.8,3.6-14.5,13.8-15.2,24.5c-0.1,1.5-0.1,2.9,0.1,4.3c-6.2,3.9-12.1,10.5-10.3,21.9c2.7,17.3,17.1,18.6,25.1,18
			c6.8-0.6,35.2-6.9,39.9-7.8c4.4-0.9,14.1,1.4,12.2,8.8c-1.5,5.7-10.2,6.6-13.4,7.3c-3.5,0.8-6,5.3-3.7,8.9
			c2.8,4.3,7.4,3.2,9.1,3.1c3.4-0.2,3.2,3.1,3.1,3.7c-0.1,1-2.2,2.6-2.4,4.2c-0.2,2.3,0.3,1.9,0.2,2.6c-0.4,3.6,1.2,3.3,1.1,6.4
			c0,0.9,0.3,1.5,0.7,1.9l0,0l0.1,0.1l0.1,0.1l0,0c0.1,0.1,0.2,0.1,0.4,0.2l-0.9,6l-1.8,2.8l2.1-2.2l1.5,2.7l-0.9-3.2l0.9-6
			c0.7-0.1,1.4-0.6,1.7-1.8c0.9-3,2.3-2.3,2.9-5.8c0.1-0.7,0.5-0.2,1-2.5c0.3-1.6-1.4-3.7-1.1-4.7c3-9.5-6.1-10.2-8.2-9.9
			c-2.6,0.4-2.5-1.1-1.5-1.4c1.6-0.4,3.9-0.7,7.7-1.8c12.7-3.6,13.2-23.4-1.3-27.2c-13.7-3.6-32.7,2.6-41.2,4.9
			c-7.8,2-26.1,2.7-24.8-11.1c0.4-4.7,2.2-8,4.4-10.3c4.1,7.5,12.1,11.7,19.4,9.9c10.1-2.5,9.1-9.2,9.1-9.2
			c-4.2,7.3-18.6,11.1-24.2-2c-0.2-0.5-0.4-1.1-0.6-1.6c3.8-2.1,7.9-2.9,10.3-3.5c1.1-0.3,13.3-2.1,17.4-10.5
			c7.5,5.4,18.9,5.2,28.3,0.7c1.3-0.6,2.6-1.4,3.7-2.2c6.5,3.5,15.2,5.3,24.2-1.9c13.7-10.9,7.7-24.2,3.2-30.6
			c-3.8-5.6-23.5-27.3-26.6-30.7c-3-3.4-5.9-13,1.5-15c5.7-1.6,10.7,5.7,12.9,8.1c2.4,2.6,7.6,2.6,9.6-1.2c2.3-4.6-0.9-8.1-1.8-9.4
			c-1.9-2.8,1.1-4.3,1.7-4.5c1-0.4,3.4,0.6,4.8,0c2.1-1,1.5-1.2,2.2-1.5c3.3-1.4,2.3-2.6,5-4.1c0.8-0.4,1.1-0.9,1.3-1.4v-0.1
			c0.1-0.4,0.1-0.7,0-0.9l4.9-2.1L234.7,12.8 M144.5,66.4c0.1-0.9,0.2-2,0.2-3.1c4.7,3.2,8.1,8.4,9.7,13c2.3,6.9-0.2,11.7-3,12
			C142.2,89.4,143.8,73.4,144.5,66.4z M131.4,114.8c-0.9,0.3-1.9,0.7-3,1.1c1-5.6,4.2-10.7,7.9-14.2c5.3-5,10.7-4.7,12.2-2.3
			C153.2,107.4,138,112.5,131.4,114.8z M166.8,104.9c-7-2.2-9.5-7.1-8.1-9.5c4.5-8.1,16.5,2.6,21.9,7.3c0.7,0.6,1.5,1.3,2.4,2
			C177.7,106.6,171.6,106.4,166.8,104.9z"/>
	</g>
	<g>
		<polygon class="st0" points="200.1,216.6 172.5,216.6 172.5,220.8 197.6,220.8 		"/>
		<polygon class="st0" points="200.1,234.1 172.5,234.1 172.5,238.4 197.6,238.4 		"/>
		<polygon class="st0" points="200.1,251.6 172.5,251.6 172.5,255.9 197.6,255.9 		"/>
		<path class="st0" d="M255.2,228.8v-2.5c0-5.4-4.3-9.7-9.7-9.7l0,0h-17.9v39.4h4.3v-17.5h8.1l10.1,17.5h5L245,238.4h0.4
			C250.9,238.4,255.2,234.1,255.2,228.8L255.2,228.8z M232,220.8h13.5c3,0,5.4,2.4,5.4,5.4v2.5c0,3-2.4,5.4-5.4,5.4H232V220.8z"/>
		<path class="st0" d="M34.6,228.8v-2.5c0-5.4-4.3-9.7-9.7-9.7H7v39.4h4.3v-17.5h8.2l10.2,17.5h5l-10.1-17.5H25
			C30.3,238.4,34.6,234.1,34.6,228.8z M11.4,220.8h13.5c3,0,5.4,2.4,5.4,5.4v2.5c0,3-2.4,5.4-5.4,5.4H11.4V220.8z"/>
		<polygon class="st0" points="64.7,255.9 75.9,228.1 87.2,255.9 91.8,255.9 78.3,222.3 75.9,216.6 73.6,222.3 60,255.9 		"/>
		<path class="st0" d="M258.7,216.6h2.8v0.5h-1.1v3.3h-0.6v-3.3h-1.1L258.7,216.6L258.7,216.6z"/>
		<path class="st0" d="M262.5,216.6h1.1l0.8,3l0.8-3h1.1v3.8h-0.6v-3.1h-0.1l-0.9,3h-0.6l-1-3l0,0v3.1h-0.6L262.5,216.6z"/>
		<polygon class="st0" points="145.1,251.6 124.8,251.6 142.6,220.8 145.1,216.6 140.1,216.6 117.3,216.6 117.3,220.8 137.6,220.8 
			119.9,251.6 117.3,255.9 122.4,255.9 142.6,255.9 		"/>
		<polygon class="st0" points="200.1,216.6 172.5,216.6 172.5,220.8 197.6,220.8 		"/>
		<polygon class="st0" points="200.1,234.1 172.5,234.1 172.5,238.4 197.6,238.4 		"/>
		<polygon class="st0" points="200.1,251.6 172.5,251.6 172.5,255.9 197.6,255.9 		"/>
		<path class="st0" d="M7,216.3"/>
		<path class="st0" d="M7,216.3"/>
		<polygon class="st0" points="64.7,255.9 75.9,228.1 87.2,255.9 91.8,255.9 78.3,222.3 75.9,216.6 73.6,222.3 60,255.9 		"/>
		<path class="st0" d="M7,216.3"/>
		<path class="st0" d="M7,216.3"/>
	</g>
</g>
</svg>
