<?xml version="1.0" encoding="utf-8"?>
<!-- Generator: Adobe Illustrator 23.0.3, SVG Export Plug-In . SVG Version: 6.00 Build 0)  -->
<svg version="1.1" id="圖層_1" xmlns="http://www.w3.org/2000/svg" xmlns:xlink="http://www.w3.org/1999/xlink" x="0px" y="0px"
	 viewBox="0 0 200 200" style="enable-background:new 0 0 200 200;" xml:space="preserve">
<style type="text/css">
	.st0{fill:none;stroke:#BF68FF;stroke-miterlimit:10;}
	.st1{fill:#BF68FF;}
</style>
<g id="Time3">
	<g>
		<circle class="st0" cx="100" cy="100" r="87"/>
		<circle class="st0" cx="100" cy="100" r="69.7"/>
	</g>
	<g>
		<path class="st1" d="M60,110.3c-1.4-1.4-2.2-3.4-2.2-5.9V91.5c0-2.6,0.7-4.5,2.2-5.9s3.6-2.1,6.3-2.1c2.8,0,4.9,0.7,6.3,2.1
			s2.2,3.4,2.2,6v12.9c0,2.6-0.7,4.5-2.2,5.9s-3.6,2.1-6.3,2.1S61.5,111.8,60,110.3z M68.7,106.2c0.5-0.7,0.8-1.8,0.8-3.2V92.9
			c0-1.4-0.3-2.4-0.8-3.2c-0.5-0.7-1.3-1.1-2.4-1.1s-1.9,0.4-2.4,1.1s-0.8,1.8-0.8,3.2V103c0,1.4,0.3,2.4,0.8,3.2
			c0.5,0.7,1.3,1.1,2.4,1.1C67.4,107.3,68.2,106.9,68.7,106.2z"/>
		<path class="st1" d="M89.1,112.5c0,0-0.7-0.3-2-0.9s-2.4-1.5-3.2-2.7c-0.8-1.2-1.2-2.6-1.3-4.3h5.5c0.1,0.6,0.3,1.1,0.5,1.5
			c0.3,0.4,0.6,0.7,1,0.9c0.4,0.2,0.9,0.3,1.4,0.3c1,0,1.8-0.3,2.4-0.8c0.6-0.6,0.8-1.4,0.8-2.4v-0.7c0-1.1-0.2-1.9-0.7-2.5
			s-1.1-0.9-1.9-0.9h-2.4v-5.2h2.4c0.7,0,1.2-0.3,1.6-0.8s0.6-1.2,0.6-2.2v-0.5c0-0.9-0.2-1.5-0.6-2s-1-0.7-1.7-0.7
			c-0.5,0-0.9,0.1-1.3,0.4c-0.4,0.2-0.7,0.6-1,1.1s-0.5,1-0.6,1.7H83c0.2-1.7,0.6-3.2,1.4-4.5s1.8-2.2,3-2.9c1.3-0.7,2.6-1,4.2-1
			c2.5,0,4.5,0.6,5.8,1.9c1.4,1.3,2.1,3.1,2.1,5.5v0.9c0,1.3-0.3,2.5-1,3.4s-1.6,1.7-2.8,2.2c1.4,0.3,2.4,1,3.2,2.1
			c0.7,1.1,1.1,2.5,1.1,4.3v0.9c0,1.7-0.3,3.1-1,4.2c-0.7,1.2-1.6,2.1-2.9,2.7s-2.8,0.9-4.5,0.9C89.9,112.5,89.1,112.5,89.1,112.5z"
			/>
		<path class="st1" d="M109.1,83.8h5.4v28.4h-5.4V83.8z M120.8,99.9c0-1-0.3-1.8-0.8-2.3s-1.4-0.8-2.4-0.8s-1.8,0.3-2.3,0.8
			c-0.5,0.6-0.8,1.3-0.8,2.3l-0.4-4.5c0.6-1.3,1.3-2.2,2.2-2.9c0.9-0.6,1.9-1,3.2-1c2.1,0,3.8,0.7,5,2.2c1.2,1.4,1.8,3.5,1.8,6.1
			v12.3h-5.4L120.8,99.9L120.8,99.9z"/>
		<path class="st1" d="M135.4,91.9h5.7v20.3h-5.7V91.9z M145.9,97c-0.4-0.1-0.8-0.2-1.3-0.2c-1.1,0-1.9,0.3-2.5,1s-0.9,1.7-0.9,2.9
			l-0.4-5.3c0.6-1.2,1.3-2.2,2.2-2.8c0.9-0.7,1.9-1,2.9-1c0.8,0,1.6,0.1,2.3,0.4s1.3,0.7,1.8,1.2l-3.1,4.4
			C146.6,97.3,146.2,97.1,145.9,97z"/>
	</g>
	<path class="st1" d="M187,100c0-48-39-87-87-87v17.3c38.5,0,69.7,31.2,69.7,69.7H187z"/>
</g>
</svg>
