<?xml version="1.0" encoding="utf-8"?>
<!-- Generator: Adobe Illustrator 23.0.3, SVG Export Plug-In . SVG Version: 6.00 Build 0)  -->
<svg version="1.1" id="圖層_1" xmlns="http://www.w3.org/2000/svg" xmlns:xlink="http://www.w3.org/1999/xlink" x="0px" y="0px"
	 viewBox="0 0 200 200" style="enable-background:new 0 0 200 200;" xml:space="preserve">
<style type="text/css">
	.st0{fill:none;stroke:#BF68FF;stroke-miterlimit:10;}
	.st1{fill:#BF68FF;}
</style>
<g id="Time12_1_">
	<g>
		<circle class="st0" cx="100" cy="100" r="87"/>
		<circle class="st0" cx="100" cy="100" r="69.7"/>
	</g>
	<g>
		<path class="st1" d="M65.5,112.2h-5.4V90.1l-3.5,1.3v-5.7l4.2-1.9h4.6L65.5,112.2L65.5,112.2z"/>
		<path class="st1" d="M74.7,107.4l9.7-12.8c0.4-0.6,0.8-1.2,1-1.8c0.2-0.6,0.4-1.2,0.4-1.7l0,0c0-0.8-0.2-1.4-0.7-1.8
			s-1.2-0.6-2.1-0.6s-1.6,0.3-2.1,0.9s-0.9,1.4-1,2.5l0,0h-5.5l0,0c0.1-1.8,0.5-3.3,1.3-4.6c0.7-1.3,1.7-2.2,3-2.9
			c1.3-0.7,2.7-1,4.3-1c1.8,0,3.3,0.3,4.5,0.9c1.3,0.6,2.2,1.4,2.9,2.5c0.7,1.1,1,2.4,1,4l0,0c0,1.3-0.2,2.6-0.7,3.8
			s-1.1,2.4-1.9,3.4l-7,8.8h9.7v5.2H74.7V107.4z"/>
		<path class="st1" d="M100,83.8h5.4v28.4H100V83.8z M111.7,99.9c0-1-0.3-1.8-0.8-2.3s-1.4-0.8-2.4-0.8s-1.8,0.3-2.3,0.8
			c-0.5,0.6-0.8,1.3-0.8,2.3l-0.4-4.5c0.6-1.3,1.3-2.2,2.2-2.9c0.9-0.6,1.9-1,3.2-1c2.1,0,3.8,0.7,5,2.2c1.2,1.4,1.8,3.5,1.8,6.1
			v12.3h-5.4L111.7,99.9L111.7,99.9z"/>
		<path class="st1" d="M126.4,91.9h5.7v20.3h-5.7C126.4,112.2,126.4,91.9,126.4,91.9z M136.8,97c-0.4-0.1-0.8-0.2-1.3-0.2
			c-1.1,0-1.9,0.3-2.5,1s-0.9,1.7-0.9,2.9l-0.4-5.3c0.6-1.2,1.3-2.2,2.2-2.8c0.9-0.7,1.9-1,2.9-1c0.8,0,1.6,0.1,2.3,0.4
			s1.3,0.7,1.8,1.2l-3.1,4.4C137.5,97.3,137.2,97.1,136.8,97z"/>
	</g>
	<path class="st1" d="M100,187c48,0,87-39,87-87s-39-87-87-87v17.3c38.5,0,69.7,31.2,69.7,69.7s-31.2,69.7-69.7,69.7V187z"/>
</g>
</svg>
