<?xml version="1.0" encoding="utf-8"?>
<!-- Generator: Adobe Illustrator 23.0.4, SVG Export Plug-In . SVG Version: 6.00 Build 0)  -->
<svg version="1.1" id="圖層_1" xmlns="http://www.w3.org/2000/svg" xmlns:xlink="http://www.w3.org/1999/xlink" x="0px" y="0px"
	 viewBox="0 0 37 37" style="enable-background:new 0 0 37 37;" xml:space="preserve">
<style type="text/css">
	.st0{fill:#FFFFFF;}
</style>
<g id="Group_1228" transform="translate(-579 7778)">
	<path id="Exclusion_1" class="st0" d="M597.7-7741.7c-9.8,0-17.7-7.9-17.7-17.7c0-4.7,1.9-9.2,5.2-12.5c6.9-6.8,18.1-6.8,25,0.2
		c6.8,6.9,6.8,17.9,0,24.8C606.8-7743.5,602.4-7741.7,597.7-7741.7z M587.6-7756.1L587.6-7756.1l-0.9,4.1l15,3.1l9.2-12.3l-3.5-2.5
		l1.1-0.4l-4.6-2l-2.5-6.6l-3.8,6.5l-1.9,0.7l-0.7,0.3l-1.9,0.7l-7.2-2.3l2.5,6.6l-2,4.6L587.6-7756.1L587.6-7756.1z"/>
	<path id="Path_1681" class="st0" d="M603.2-7762.3c-0.4-0.9-1.5-1.2-2.3-0.8c-0.9,0.3-1.4,1.2-1.2,2.2l0,0.1
		c0.2,0.5,1.1,0.5,2.1,0.2S603.5-7761.7,603.2-7762.3L603.2-7762.3z"/>
	<path id="Path_1682" class="st0" d="M591.6-7757.8c-0.3-0.9,0.3-1.9,1.2-2.2c0.9-0.4,1.9,0,2.3,0.8l0,0.1c0.2,0.5-0.5,1.1-1.4,1.5
		S591.8-7757.2,591.6-7757.8L591.6-7757.8z"/>
</g>
</svg>
