<?xml version="1.0" encoding="utf-8"?>
<!-- Generator: Adobe Illustrator 23.0.4, SVG Export Plug-In . SVG Version: 6.00 Build 0)  -->
<svg version="1.1" id="圖層_1" xmlns="http://www.w3.org/2000/svg" xmlns:xlink="http://www.w3.org/1999/xlink" x="0px" y="0px"
	 viewBox="0 0 289 114" style="enable-background:new 0 0 289 114;" xml:space="preserve">
<style type="text/css">
	.st0{fill:#FFFFFF;}
	.st1{enable-background:new    ;}
</style>
<g>
	<path class="st0" d="M33.5,91.4c3.2-6.5,27.3-51.8,27.3-51.8L97,96.4H34l43.7-8L60.3,63.7l-14,20.2l19.2-6.2l3.2,5.6l-31.3,7.2"/>
	<rect x="44.6" y="54" class="st0" width="8.6" height="19.4"/>
	<rect x="67.8" y="53" class="st0" width="8.6" height="19.4"/>
	<rect x="41.1" y="47.7" class="st0" width="10.4" height="8.1"/>
	<rect x="71.2" y="47.6" class="st0" width="10.4" height="8.1"/>
	<g>
		<path class="st0" d="M52,72.7c-3.9,1.9-8.9,2.9-15.1,2.9c-8,0-14.4-2.4-19.1-7.2s-7.1-11.2-7.1-19.2c0-8.4,2.6-15.3,7.9-20.6
			s12-8,20.3-8c5.2,0,9.5,0.7,13,2v11c-3.6-2.1-7.7-3.2-12.2-3.2c-5.2,0-9.4,1.7-12.5,5s-4.7,7.7-4.7,13c0,5.2,1.5,9.4,4.4,12.6
			c3,3.2,6.9,4.8,12,4.8c4.7,0,9.1-1.1,12.9-3.4v10.3H52z"/>
	</g>
</g>
<g>
	<g class="st1">
		<path class="st0" d="M98.6,29.1c0-0.9,0.4-1.4,1.2-1.4h38.3c0.9,0,1.3,0.4,1.3,1.3v1.3c0,0.9-0.4,1.3-1.3,1.3h-14.8
			c-0.7,0-1.1,0.5-1.1,1.4c0,0.9,0.4,1.4,1.1,1.4h14.7c0.9,0,1.3,0.4,1.3,1.3v7.4c0,0.9-0.4,1.3-1.3,1.3h-3.2
			c-0.9,0-1.3-0.4-1.3-1.3v-4.5c0-0.7-0.4-1.1-1.1-1.1h-9.1c-0.7,0-1.1,0.4-1.1,1.1v4.8c0,0.9-0.4,1.3-1.3,1.3h-3.9
			c-0.9,0-1.3-0.4-1.3-1.3v-4.8c0-0.7-0.4-1.1-1.1-1.1h-9.2c-0.7,0-1.1,0.4-1.1,1.1v4.5c0,0.9-0.4,1.3-1.3,1.3H100
			c-0.9,0-1.3-0.4-1.3-1.3v-7.4c0-0.9,0.4-1.3,1.3-1.3h14.8c0.7,0,1.1-0.5,1.1-1.4c0-0.9-0.4-1.4-1.1-1.4H99.9
			c-0.9,0-1.3-0.4-1.3-1.3V29.1z M99.2,48.6c0-0.9,0.4-1.3,1.3-1.3h37.1c0.9,0,1.3,0.4,1.3,1.3v11.6c-0.1,1.9-1.1,3.1-3.3,3.4h-12
			c-0.7,0-1.1,0.4-1.1,1.1c-0.3,1.4,0.3,2.1,2.1,2.1h13c0.9,0,1.3,0.5,1.3,1.4s-0.4,1.4-1.3,1.4h-18.4c-0.9,0-1.8-0.4-2.6-1.2
			c-0.7-1-0.9-2.2-0.8-3.7c0-0.7-0.4-1.1-1.1-1.1h-14.2c-0.9,0-1.3-0.4-1.3-1.3V48.6z M115.8,52.8c0-0.9-0.3-1.4-1-1.4h-8
			c-0.7,0-1.1,0.5-1.1,1.4c0,0.9,0.4,1.4,1.1,1.4h8C115.4,54.1,115.8,53.7,115.8,52.8z M115.8,58.1c0-0.9-0.4-1.3-1.1-1.3h-8
			c-0.7,0-1.1,0.4-1.1,1.3c0,0.9,0.4,1.3,1.1,1.3h8C115.4,59.4,115.8,59,115.8,58.1z M106.5,40.7c0-0.5,0.4-0.7,1.2-0.7h4.7
			c0.9,0,1.3,0.2,1.3,0.7c0,0.4-0.4,0.7-1.3,0.7h-4.6C107,41.3,106.5,41.1,106.5,40.7z M106.5,44.2c0-0.5,0.4-0.7,1.2-0.7h4.7
			c0.9,0,1.3,0.2,1.3,0.7c0,0.4-0.4,0.7-1.3,0.7h-4.6C107,44.9,106.5,44.7,106.5,44.2z M132.4,52.8c0-0.9-0.3-1.4-1-1.4h-7.8
			c-0.7,0-1.1,0.5-1.1,1.4c0,0.9,0.4,1.4,1.1,1.4h7.8C132,54.1,132.4,53.7,132.4,52.8z M132.4,57.9c0-0.7-0.4-1-1.1-1h-7.8
			c-0.7,0-1.1,0.4-1.1,1.3c0,0.9,0.4,1.3,1.1,1.3h6.7C131.6,59.7,132.3,59.1,132.4,57.9z M124.6,40.7c0-0.5,0.4-0.7,1.2-0.7h4.2
			c0.9,0,1.3,0.2,1.3,0.7c0,0.4-0.4,0.7-1.3,0.7h-4.1C125,41.3,124.6,41.1,124.6,40.7z M124.6,44.2c0-0.5,0.4-0.7,1.2-0.7h4.2
			c0.9,0,1.3,0.2,1.3,0.7c0,0.4-0.4,0.7-1.3,0.7h-4.1C125,44.9,124.6,44.7,124.6,44.2z"/>
		<path class="st0" d="M143.4,46.8c0-0.9,0.4-1.3,1.3-1.3h16.1c0.9,0,1.3,0.4,1.3,1.3v8.7c-0.1,1.3-0.6,2.2-1.3,2.7
			c-0.5,0.4-0.7,0.9-0.7,1.6c0,1.2,0,2.5,0.1,3.8c0.5,0.6,1,0.9,1.5,0.8c0.4,0,0.6,0.4,0.6,1.3v2.6c0,0.9-0.4,1.3-1.3,1.3h-4
			c-1.7,0-2.8-1.1-3.2-3.4v-6.1c0-0.7-0.4-1.1-1.2-1.1c-0.7,0-1.2,0.5-1.5,1.4c-0.6,2.2-1.1,4.4-1.6,6.5c-0.8,2.1-2.5,3-5.1,2.6
			c-0.9,0-1.4-0.4-1.5-1.3l-0.3-2.2c-0.2-1.1-0.1-1.7,0.3-1.7c0.5,0.1,1-0.3,1.5-1c0.3-1.1,0.6-2.1,0.8-3.2c0.2-0.8,0-1.2-0.7-1.2
			c-0.7,0-1-0.4-1-1.3V46.8z M149.8,28.1c0-0.6,0.4-0.8,1.2-0.8h4c0.9,0,1.3,0.3,1.3,0.8c0,0.6,0.4,0.8,1.1,0.8h3.5
			c0.9,0,1.3,0.4,1.3,1.3v1.9c0,0.9-0.2,1.3-0.6,1.3c-0.5,0-0.9,0.5-1.2,1.4c-0.3,0.7-0.5,1.5-0.6,2.2c-0.3,0.8,0,1.2,0.7,1.2h0.8
			c0.9,0,1.3,0.4,1.3,1.3v2.3c0,0.9-0.4,1.3-1.3,1.3H144c-0.9,0-1.3-0.4-1.3-1.3v-2.3c0-0.9,0.5-1.3,1.4-1.3c1,0,1.4-0.4,1.2-1.2
			l-0.6-2.6c-0.2-0.7-0.5-1.1-0.9-1.1c-0.4,0-0.6-0.4-0.6-1.3v-1.9c0-0.9,0.4-1.3,1.3-1.3h4.2C149.4,28.8,149.8,28.6,149.8,28.1z
			 M156,51.7c0-0.9-0.3-1.4-1-1.4h-4.3c-0.7,0-1.1,0.4-1.1,1.1V53c0,0.7,0.4,1.1,1.1,1.1c1.5,0,3,0,4.6-0.1
			C156,53.4,156.2,52.6,156,51.7z M154.5,34.5c0.2-0.8,0-1.1-0.7-1.1h-2.4c-0.7,0-1,0.4-0.8,1.2c0.1,0.9,0.3,1.7,0.6,2.6
			c0.2,0.7,0.6,1.1,1.2,1.1c0.7,0,1.1-0.5,1.4-1.4L154.5,34.5z M165.1,46.8c0-0.9,0.4-1.3,1.3-1.3H182c0.9,0,1.3,0.4,1.3,1.3v8.7
			c-0.1,1-0.4,1.8-0.9,2.3c-0.4,0.4-0.6,1-0.6,1.7c0,1.4,0,2.7,0.1,4.1c0.4,0.6,0.9,0.8,1.5,0.8c0.4,0,0.6,0.4,0.6,1.3v2.6
			c0,0.9-0.4,1.3-1.3,1.3h-4c-1.7,0-2.8-1.1-3.2-3.4v-6.1c0-0.7-0.3-1.1-1-1.1s-1.2,0.4-1.4,1.3c-0.6,2.2-1.1,4.4-1.6,6.6
			c-0.5,1.6-1.7,2.5-3.4,2.6h-1.9c-0.9,0-1.4-0.4-1.5-1.3l-0.3-2.2c-0.2-1.1-0.1-1.7,0.3-1.7c0.8,0,1.4-0.4,1.7-1.3l0.6-2.6
			c0.3-1,0-1.5-0.7-1.5s-1.1-0.4-1.1-1.3V46.8z M171.4,28.1c0-0.6,0.4-0.8,1.2-0.8h4c0.9,0,1.3,0.3,1.3,0.8c0,0.6,0.4,0.8,1.1,0.8
			h3.3c0.9,0,1.3,0.4,1.3,1.3v1.9c0,0.9-0.1,1.3-0.4,1.3s-0.6,0.4-0.8,1.3l-0.5,2.3c-0.2,0.8,0.1,1.2,0.9,1.2c0.8,0,1.2,0.4,1.2,1.3
			v2.3c0,0.9-0.4,1.3-1.3,1.3h-16.3c-0.9,0-1.3-0.4-1.3-1.3v-2.3c0-0.9,0.4-1.3,1.2-1.3c0.9,0,1.2-0.5,1-1.4l-0.6-2.3
			c-0.2-0.7-0.5-1.1-0.9-1.1s-0.6-0.4-0.6-1.3v-1.9c0-0.9,0.4-1.3,1.3-1.3h3.9C171.1,28.8,171.4,28.6,171.4,28.1z M177.1,51.7
			c0-0.9-0.3-1.4-1-1.4h-3.9c-0.7,0-1.1,0.4-1.1,1.1V53c0,0.7,0.4,1.1,1.1,1.1c1.4,0,2.8,0,4.1-0.1
			C177.1,53.4,177.4,52.6,177.1,51.7z M176.5,34.5c0.2-0.8,0-1.1-0.8-1.1h-2.3c-0.7,0-1,0.4-0.8,1.2c0.1,0.9,0.3,1.7,0.6,2.6
			c0.2,0.7,0.6,1.1,1.3,1.1c0.7,0,1.2-0.4,1.4-1.3L176.5,34.5z"/>
		<path class="st0" d="M187.2,51.9c0-0.9,0.4-1.3,1.3-1.3h37.1c0.9,0,1.3,0.4,1.3,1.3v2.6c0,0.9-0.4,1.3-1.3,1.3h-14.1
			c-0.7,0-1.1,0.4-1.1,1.1v6.4c0,0.7,0.4,1.1,1.1,1.1h15c0.9,0,1.3,0.4,1.3,1.3v2.6c0,0.9-0.4,1.3-1.3,1.3h-38.8
			c-0.9,0-1.3-0.4-1.3-1.3v-2.6c0-0.9,0.4-1.3,1.3-1.3h15.2c0.7,0,1.1-0.4,1.1-1.1v-6.4c0-0.7-0.4-1.1-1.1-1.1h-14.4
			c-0.9,0-1.3-0.4-1.3-1.3V51.9z M203.9,28c0-0.6,0.4-0.9,1.2-0.9h4c0.9,0,1.3,0.3,1.3,0.9c0,0.6,0.4,0.9,1.1,0.9H226
			c0.9,0,1.3,0.4,1.3,1.3v6.5c0,0.9-0.4,1.3-1.3,1.3H222c-0.9,0-1.3-0.4-1.3-1.3v-1.5c0-0.7-0.4-1.1-1.1-1.1h-25.3
			c-0.7,0-1.1,0.4-1.1,1.1v1.5c0,0.9-0.4,1.3-1.3,1.3h-3.9c-0.9,0-1.3-0.4-1.3-1.3v-6.5c0-0.9,0.4-1.3,1.3-1.3h14.7
			C203.5,28.8,203.9,28.6,203.9,28z M197.8,38.6c0.5-0.9,1.1-1.3,2-1.3h4.5c0.9,0,1.1,0.4,0.7,1.3c-0.8,1.6-1.6,3.2-2.3,4.9
			c-0.7,2-1.9,3.1-3.7,3.3h-9.8c-0.9,0-1.4-0.4-1.5-1.3l-0.3-2.2c-0.2-1.1,0.1-1.7,1-1.7h6.4C196,41.5,197.1,40.6,197.8,38.6z
			 M209.6,38.6c0-0.9,0.4-1.3,1.3-1.3h3.9c0.9,0,1.3,0.4,1.3,1.3c0,0.7,0,1.4,0.1,2.2c0.5,0.7,1.1,1,2,0.8h7.7
			c0.9,0,1.3,0.4,1.3,1.3v2.6c0,0.9-0.4,1.3-1.3,1.3h-12.9c-1.8,0-2.9-1.1-3.3-3.4V38.6z"/>
		<path class="st0" d="M231.5,29.2c0-0.9,0.4-1.4,1.2-1.4h15.4c0.9,0,1.3,0.4,1.3,1.3v13.8c-0.1,2-1.2,3.1-3.3,3.4h-7.4
			c-0.7,0-1.1,0.4-1.1,1.1v20.9c0,0.9-0.4,1.3-1.3,1.3h-3.7c-0.9,0-1.3-0.4-1.3-1.3V29.2z M243.2,33.8c0-1-0.3-1.5-1-1.5h-3.3
			c-0.7,0-1.1,0.5-1.1,1.5c0,1,0.4,1.5,1.1,1.5h3.3C242.8,35.2,243.2,34.8,243.2,33.8z M243.2,39.7c0-0.7-0.3-1-1-1h-3.3
			c-0.7,0-1.1,0.4-1.1,1.1v0.8c0,0.7,0.4,1.1,1.1,1.1c1.2,0,2.4,0,3.6-0.1C243.1,41.2,243.3,40.6,243.2,39.7z M241.3,50.7
			c0-0.9,0.4-1.4,1.2-1.4h17c0.9,0,1.3,0.4,1.3,1.3v15.2c0.1,1.8-1,2.9-3.3,3.4h-15c-0.9,0-1.3-0.4-1.3-1.3V50.7z M254.5,55.1
			c0-0.8-0.3-1.2-1-1.2h-4.9c-0.7,0-1.1,0.4-1.1,1.1v1.2c0,0.7,0.4,1.1,1.1,1.1h4.8c0.7,0,1.1-0.4,1.1-1.1V55.1z M254.5,62.4
			c0-0.9-0.3-1.3-1-1.3h-4.9c-0.7,0-1.1,0.4-1.1,1.1v1.4c0,0.7,0.4,1.1,1.1,1.1c1.7,0,3.4,0,5.1-0.1
			C254.5,64.2,254.7,63.5,254.5,62.4z M252.8,29.2c0-0.9,0.4-1.4,1.2-1.4h15.3c0.9,0,1.3,0.4,1.3,1.3v37.1c0,1.9-1.1,3-3.2,3.4h-2.9
			c-0.9,0-1.4-0.4-1.5-1.3l-0.3-2.2c-0.2-1.1-0.1-1.7,0.2-1.7c1.2-0.1,1.7-0.8,1.5-2.2V47.4c0-0.7-0.4-1.1-1.1-1.1h-9.2
			c-0.9,0-1.3-0.4-1.3-1.3V29.2z M264.3,33.7c0-0.9-0.3-1.4-1-1.4h-3.1c-0.7,0-1.1,0.5-1.1,1.4c0,0.9,0.4,1.4,1.1,1.4h3.1
			C264,35.1,264.3,34.6,264.3,33.7z M264.3,39.7c0-0.8-0.3-1.1-1-1.1h-3.1c-0.7,0-1.1,0.4-1.1,1.1v1.1c0,0.7,0.4,1.1,1.1,1.1h3.1
			c0.7,0,1.1-0.4,1.1-1.1V39.7z"/>
	</g>
	<g class="st1">
		<path class="st0" d="M137.4,83.2l-0.5-0.1c0-0.1,0-0.2,0-0.3c0-0.2-0.1-0.4-0.4-0.6c-0.3-0.2-0.6-0.3-1.1-0.5
			c-0.4-0.1-0.9-0.2-1.4-0.3c-0.5-0.1-1-0.1-1.5-0.1c-0.6,0-1.1,0.1-1.7,0.2c-0.6,0.2-1.1,0.4-1.5,0.8c-0.4,0.3-0.8,0.8-1.1,1.3
			c-0.3,0.5-0.4,1.2-0.4,2c0,0.8,0.1,1.4,0.4,2c0.3,0.5,0.6,1,1.1,1.3c0.4,0.3,0.9,0.6,1.5,0.8c0.6,0.2,1.1,0.2,1.7,0.2
			c0.9,0,1.7-0.1,2.4-0.2c0.7-0.1,1.3-0.3,1.8-0.5v-2h-3c-0.2,0-0.4,0-0.5,0.1s-0.2,0.3-0.2,0.6h-0.4v-3h0.4c0,0.3,0.1,0.4,0.2,0.5
			c0.1,0.1,0.3,0.1,0.5,0.1h5.8V86c-0.3,0-0.5,0.1-0.6,0.2c-0.1,0.1-0.1,0.2-0.1,0.4v2.6c0,0.2,0,0.3,0.1,0.3c0.1,0,0.2,0.1,0.3,0.2
			V90c-0.5,0.4-1,0.7-1.6,0.9c-0.6,0.2-1.1,0.4-1.7,0.5c-0.6,0.1-1.2,0.2-1.7,0.2c-0.6,0-1.1,0-1.7,0c-1.1,0-2.1-0.1-3-0.4
			c-0.9-0.3-1.7-0.7-2.3-1.2c-0.6-0.5-1.1-1.2-1.5-2c-0.3-0.8-0.5-1.6-0.5-2.6c0-1,0.2-1.8,0.5-2.6c0.3-0.8,0.8-1.4,1.5-2
			c0.6-0.5,1.4-1,2.3-1.2s1.9-0.4,3-0.4c0.7,0,1.3,0,2,0.1c0.6,0.1,1.2,0.2,1.6,0.3c0.5,0.1,0.9,0.2,1.2,0.3
			c0.3,0.1,0.5,0.2,0.6,0.2c0.1,0,0.2,0,0.3-0.1c0.1-0.1,0.2-0.1,0.2-0.2l0.3,0.2L137.4,83.2z"/>
		<path class="st0" d="M141.4,91.2c0.2,0,0.3-0.1,0.5-0.3c0.1-0.1,0.2-0.3,0.3-0.4l3.5-7.5c0.1-0.2,0.2-0.4,0.2-0.5
			c0.1-0.1,0.1-0.3,0.1-0.4c0-0.1,0-0.2-0.1-0.2c0,0-0.1,0-0.1-0.1v-0.4h3.5v0.4c0,0-0.1,0.1-0.2,0.1c-0.1,0-0.1,0.1-0.1,0.2
			c0,0.1,0,0.2,0.1,0.3c0.1,0.1,0.1,0.3,0.2,0.5l3.8,7.9c0.1,0.1,0.2,0.2,0.3,0.3c0.1,0.1,0.2,0.1,0.3,0.1v0.4h-3.3v-0.3
			c0.1,0,0.2,0,0.2-0.1c0.1,0,0.1-0.1,0.1-0.3c0-0.1,0-0.2,0-0.3c0-0.1-0.1-0.2-0.1-0.3l-0.6-1.3h-5l-0.6,1.3
			c-0.1,0.1-0.1,0.2-0.2,0.3c0,0.1-0.1,0.2-0.1,0.3c0,0.1,0,0.2,0.1,0.2c0.1,0,0.2,0,0.3,0v0.4h-3.1V91.2z M149.2,87.4l-1.9-3.9
			l-1.6,3.9H149.2z"/>
		<path class="st0" d="M156.2,91.2c0.1,0,0.1,0,0.2-0.1s0.1-0.2,0.1-0.3v-8.5c0-0.2,0-0.3-0.1-0.4c0,0-0.1-0.1-0.2-0.1v-0.4h3.2v0.4
			c-0.2,0-0.2,0.1-0.2,0.2c0,0.1,0,0.1,0.1,0.2c0.1,0.1,0.1,0.2,0.2,0.4l2.8,5.2l2.9-5.2c0.1-0.2,0.2-0.3,0.3-0.5
			c0.1-0.1,0.1-0.2,0.1-0.2c0-0.1-0.1-0.2-0.2-0.2v-0.4h3.3v0.4c-0.1,0-0.2,0-0.2,0.1c-0.1,0-0.1,0.1-0.1,0.2v8.7
			c0,0.1,0,0.2,0.1,0.3c0.1,0.1,0.1,0.1,0.2,0.1v0.4h-2.7v-0.4c0.3,0,0.5-0.1,0.4-0.3v-6.5h0l-3.9,7.3h-0.2l-3.7-7.3h0h0v6.5
			c0,0.2,0.1,0.3,0.4,0.3v0.4h-2.6V91.2z"/>
		<path class="st0" d="M172.8,91.2c0.2,0,0.4,0,0.5-0.1c0.1-0.1,0.1-0.1,0.1-0.3v-8.7c0-0.1,0-0.2-0.1-0.3c-0.1-0.1-0.3-0.1-0.5-0.1
			v-0.4h3.5v0.4c-0.4,0-0.7,0.1-0.7,0.3v8.7c0,0.2,0.2,0.3,0.7,0.3v0.4h-3.5V91.2z"/>
		<path class="st0" d="M180.4,91.2c0.3,0,0.4-0.1,0.4-0.3v-8.7c0-0.2-0.1-0.3-0.4-0.3v-0.4h3.4v0.4c-0.1,0-0.2,0.1-0.2,0.1
			c0,0.1,0.2,0.3,0.5,0.6l5.6,5.9v-6.3c0-0.2-0.2-0.3-0.5-0.3v-0.4h2.8v0.4c-0.3,0-0.4,0.1-0.4,0.3v8.7c0,0.2,0.1,0.3,0.4,0.3v0.4
			h-3v-0.4c0.1,0,0.2,0,0.2-0.1c0-0.1-0.1-0.2-0.2-0.3c-0.1-0.2-0.3-0.3-0.5-0.5l-5.8-6.1v6.8c0,0.2,0.2,0.3,0.5,0.3v0.4h-2.9V91.2z
			"/>
		<path class="st0" d="M204.9,84.8l-0.3-0.2c0-0.2,0-0.2,0-0.3c0-0.1-0.1-0.3-0.3-0.5c-0.2-0.2-0.5-0.3-0.8-0.5s-0.7-0.3-1.1-0.3
			c-0.4-0.1-0.8-0.1-1.2-0.1c-0.6,0-1.1,0.1-1.6,0.2c-0.5,0.1-1,0.3-1.3,0.6c-0.4,0.3-0.7,0.7-0.9,1.1c-0.2,0.4-0.3,1-0.3,1.6
			c0,0.7,0.1,1.2,0.4,1.6c0.2,0.4,0.6,0.8,1,1.1c0.4,0.3,0.8,0.5,1.3,0.6c0.5,0.1,0.9,0.2,1.4,0.2c0.7,0,1.3,0,1.9-0.1
			s1.1-0.3,1.6-0.5v-1.5h-2.4c-0.2,0-0.3,0-0.4,0.1c-0.1,0.1-0.2,0.2-0.2,0.4h-0.4V86h0.4c0,0.2,0.1,0.3,0.2,0.3s0.3,0.1,0.4,0.1
			h4.5v0.4c-0.1,0.1-0.2,0.1-0.3,0.2c0,0.1-0.1,0.2-0.1,0.3v2.2c0,0.1,0,0.2,0.1,0.3c0,0.1,0.1,0.1,0.3,0.2v0.3
			c-0.1,0.1-0.4,0.2-0.7,0.4c-0.3,0.2-0.7,0.3-1.1,0.5c-0.5,0.2-1,0.3-1.6,0.4s-1.3,0.2-2,0.2c-1,0-1.9-0.1-2.7-0.3s-1.5-0.6-2.1-1
			c-0.6-0.4-1-1-1.3-1.6c-0.3-0.6-0.5-1.4-0.5-2.2s0.2-1.6,0.5-2.2c0.3-0.6,0.7-1.2,1.3-1.6c0.6-0.5,1.3-0.8,2.1-1s1.7-0.4,2.7-0.4
			c0.6,0,1.1,0.1,1.6,0.2c0.5,0.1,0.9,0.2,1.2,0.3c0.4,0.1,0.6,0.2,0.9,0.3s0.4,0.2,0.5,0.2c0.1,0,0.2,0,0.3,0
			c0.1,0,0.1-0.1,0.2-0.2l0.3,0.1L204.9,84.8z"/>
		<path class="st0" d="M215.7,91.2c0.2,0,0.4-0.1,0.5-0.3c0.1-0.2,0.2-0.4,0.3-0.6l4.3-9c0.1-0.2,0.2-0.4,0.3-0.6
			c0.1-0.2,0.1-0.3,0.1-0.4c0-0.2-0.1-0.3-0.2-0.3s-0.2-0.1-0.3-0.1v-0.4h3.9v0.4c-0.1,0-0.2,0.1-0.3,0.1c-0.1,0.1-0.2,0.2-0.2,0.3
			c0,0.1,0,0.2,0.1,0.4c0.1,0.1,0.1,0.3,0.2,0.5l4.8,9.4c0.1,0.2,0.2,0.3,0.3,0.4c0.1,0.1,0.3,0.2,0.5,0.2v0.4H226v-0.4
			c0.1,0,0.1,0,0.2-0.1c0.1,0,0.1-0.1,0.1-0.2c0-0.2-0.1-0.4-0.2-0.6l-0.9-1.7h-5.7l-0.8,1.6c-0.2,0.3-0.2,0.6-0.2,0.7
			c0,0.2,0.1,0.3,0.4,0.3v0.4h-3.3V91.2z M224.5,86.9l-2-4.3l-2.2,4.3H224.5z"/>
		<path class="st0" d="M238.9,81.4c1.4,0,2.5,0.2,3.2,0.7c0.8,0.5,1.2,1.2,1.2,2.3c0,0.4-0.1,0.8-0.2,1.1c-0.2,0.3-0.4,0.6-0.6,0.8
			c-0.3,0.2-0.5,0.4-0.8,0.6c-0.3,0.1-0.6,0.3-1,0.3l2.3,3.3c0.1,0.2,0.3,0.3,0.4,0.4s0.3,0.2,0.5,0.2v0.4h-3.6v-0.4
			c0.2,0,0.3-0.1,0.3-0.2c0-0.2-0.1-0.4-0.3-0.7l-1.8-2.7h-3.2v3.3c0,0.1,0,0.2,0.2,0.3c0.1,0.1,0.2,0.1,0.3,0.1v0.4h-3.1v-0.4
			c0.3,0,0.4-0.1,0.4-0.3v-8.7c0-0.2-0.1-0.3-0.4-0.3v-0.4H238.9z M238.9,85.9c1.5,0,2.3-0.5,2.3-1.4c0-0.4-0.2-0.7-0.5-0.9
			c-0.4-0.2-0.9-0.3-1.7-0.3h-3.7v2.7H238.9z"/>
		<path class="st0" d="M255.8,83.6c0-0.3-0.2-0.4-0.7-0.4h-5.7v2.3h3.6c0.3,0,0.5,0,0.6-0.1c0.1,0,0.2-0.1,0.2-0.3h0.4v2.5h-0.5
			c0-0.2,0-0.3-0.2-0.3c-0.2,0-0.4-0.1-0.7-0.1h-3.4v2.7h5.9c0.2,0,0.3,0,0.5-0.1s0.2-0.2,0.2-0.3h0.4v2.4H256
			c0-0.1-0.1-0.2-0.2-0.2c-0.1,0-0.3,0-0.5,0h-8.5v-0.4c0.1,0,0.2,0,0.2-0.1c0.1-0.1,0.1-0.1,0.1-0.3v-8.7c0-0.1,0-0.2-0.1-0.3
			c-0.1-0.1-0.2-0.1-0.2-0.1v-0.4h8.2c0.5,0,0.7-0.1,0.7-0.4h0.4v2.6H255.8z"/>
		<path class="st0" d="M258.2,91.2c0.2,0,0.3-0.1,0.5-0.3s0.2-0.3,0.3-0.4l3.5-7.5c0.1-0.2,0.2-0.4,0.2-0.5c0.1-0.1,0.1-0.3,0.1-0.4
			c0-0.1,0-0.2-0.1-0.2c0,0-0.1,0-0.1-0.1v-0.4h3.5v0.4c0,0-0.1,0.1-0.2,0.1c-0.1,0-0.1,0.1-0.1,0.2c0,0.1,0,0.2,0.1,0.3
			c0.1,0.1,0.1,0.3,0.2,0.5l3.8,7.9c0.1,0.1,0.2,0.2,0.3,0.3c0.1,0.1,0.2,0.1,0.3,0.1v0.4h-3.3v-0.3c0.1,0,0.2,0,0.2-0.1
			c0.1,0,0.1-0.1,0.1-0.3c0-0.1,0-0.2,0-0.3c0-0.1-0.1-0.2-0.1-0.3l-0.6-1.3h-5l-0.7,1.3c-0.1,0.1-0.1,0.2-0.2,0.3
			c0,0.1-0.1,0.2-0.1,0.3c0,0.1,0,0.2,0.1,0.2c0.1,0,0.2,0,0.3,0v0.4h-3.1V91.2z M265.9,87.4l-1.9-3.9l-1.6,3.9H265.9z"/>
	</g>
</g>
</svg>
