<?xml version="1.0" encoding="utf-8"?>
<!-- Generator: Adobe Illustrator 23.0.4, SVG Export Plug-In . SVG Version: 6.00 Build 0)  -->
<svg version="1.1" id="圖層_1" xmlns="http://www.w3.org/2000/svg" xmlns:xlink="http://www.w3.org/1999/xlink" x="0px" y="0px"
	 viewBox="0 0 162 131" style="enable-background:new 0 0 162 131;" xml:space="preserve">
<style type="text/css">
	.st0{fill:#FFFFFF;}
</style>
<g>
	<g>
		<path class="st0" d="M60.1,84.7C63.4,78.1,88,32,88,32l36.8,57.9H60.7l44.6-8.2L87.5,56.5L73.2,77.1l19.5-6.3l3.3,5.7l-31.9,7.3"
			/>
		<rect x="71.5" y="46.6" class="st0" width="8.8" height="19.8"/>
		<rect x="95.1" y="45.6" class="st0" width="8.8" height="19.8"/>
		
			<rect x="69.1" y="39" transform="matrix(-1.026721e-05 1 -1 -1.026721e-05 117.4901 -28.9762)" class="st0" width="8.2" height="10.6"/>
		
			<rect x="99.8" y="39" transform="matrix(-1.026721e-05 1 -1 -1.026721e-05 148.2036 -59.6893)" class="st0" width="8.2" height="10.6"/>
		<g>
			<path class="st0" d="M79.1,65.7c-3.9,1.9-9.1,2.9-15.4,2.9c-8.2,0-14.6-2.4-19.4-7.3C39.4,56.4,37,49.9,37,41.8
				c0-8.6,2.7-15.6,8-21c5.4-5.4,12.3-8.2,20.7-8.2c5.3,0,9.7,0.7,13.3,2.1v11.2c-3.7-2.1-7.8-3.2-12.5-3.2c-5.3,0-9.5,1.7-12.7,5.1
				c-3.2,3.4-4.8,7.8-4.8,13.3c0,5.3,1.5,9.6,4.5,12.8c3,3.2,7.1,4.9,12.2,4.9c4.8,0,9.2-1.2,13.2-3.5V65.7z"/>
		</g>
	</g>
	<g>
		<g>
			<path class="st0" d="M18.5,112.8l-0.5-0.1c0-0.1,0-0.2,0-0.3c0-0.2-0.1-0.4-0.4-0.6c-0.3-0.2-0.7-0.4-1.1-0.5
				c-0.4-0.1-0.9-0.2-1.5-0.3c-0.5-0.1-1-0.1-1.5-0.1c-0.6,0-1.2,0.1-1.7,0.2c-0.6,0.2-1.1,0.4-1.5,0.8c-0.4,0.3-0.8,0.8-1.1,1.3
				c-0.3,0.6-0.4,1.2-0.4,2c0,0.8,0.1,1.4,0.4,2c0.3,0.6,0.6,1,1.1,1.4c0.4,0.3,1,0.6,1.5,0.8c0.6,0.2,1.2,0.2,1.7,0.2
				c0.9,0,1.7-0.1,2.4-0.2c0.7-0.2,1.3-0.3,1.8-0.5v-2h-3c-0.2,0-0.4,0-0.5,0.1c-0.1,0.1-0.2,0.3-0.2,0.6h-0.4v-3h0.4
				c0,0.3,0.1,0.4,0.2,0.5c0.1,0.1,0.3,0.1,0.5,0.1h5.9v0.4c-0.3,0-0.5,0.1-0.6,0.2c-0.1,0.1-0.1,0.2-0.1,0.4v2.7
				c0,0.2,0,0.3,0.1,0.3c0.1,0,0.2,0.1,0.3,0.2v0.4c-0.5,0.4-1.1,0.7-1.6,0.9c-0.6,0.2-1.2,0.4-1.8,0.6c-0.6,0.1-1.2,0.2-1.8,0.2
				c-0.6,0-1.2,0-1.7,0c-1.1,0-2.1-0.1-3-0.4c-0.9-0.3-1.7-0.7-2.3-1.2c-0.6-0.5-1.1-1.2-1.5-2c-0.4-0.8-0.5-1.7-0.5-2.7
				c0-1,0.2-1.9,0.5-2.7c0.4-0.8,0.9-1.4,1.5-2c0.6-0.6,1.4-1,2.3-1.3c0.9-0.3,1.9-0.4,3-0.4c0.7,0,1.4,0,2,0.1
				c0.6,0.1,1.2,0.2,1.7,0.3c0.5,0.1,0.9,0.2,1.2,0.3c0.3,0.1,0.5,0.2,0.6,0.2c0.1,0,0.3,0,0.3-0.1c0.1-0.1,0.2-0.1,0.2-0.2l0.3,0.2
				L18.5,112.8z"/>
			<path class="st0" d="M22.6,121c0.2,0,0.3-0.1,0.5-0.3c0.1-0.1,0.2-0.3,0.3-0.4l3.5-7.7c0.1-0.2,0.2-0.4,0.2-0.5
				c0.1-0.1,0.1-0.3,0.1-0.4c0-0.1,0-0.2-0.1-0.2c0,0-0.1-0.1-0.1-0.1V111h3.6v0.4c0,0-0.1,0.1-0.2,0.1c-0.1,0-0.1,0.1-0.1,0.2
				c0,0.1,0,0.2,0.1,0.3c0.1,0.1,0.1,0.3,0.2,0.5l3.8,8c0.1,0.1,0.2,0.2,0.3,0.3c0.1,0.1,0.2,0.1,0.3,0.1v0.4h-3.4v-0.4
				c0.1,0,0.2,0,0.2-0.1s0.1-0.1,0.1-0.3c0-0.1,0-0.2,0-0.3c0-0.1-0.1-0.2-0.1-0.3l-0.6-1.3h-5.1l-0.7,1.3c-0.1,0.1-0.1,0.2-0.2,0.3
				c0,0.1-0.1,0.2-0.1,0.3c0,0.1,0,0.2,0.1,0.2c0.1,0,0.2,0,0.3,0v0.4h-3.2V121z M30.5,117.1l-1.9-4l-1.7,4H30.5z"/>
			<path class="st0" d="M37.6,121c0.1,0,0.1,0,0.2-0.1c0.1,0,0.1-0.2,0.1-0.3v-8.7c0-0.2,0-0.4-0.1-0.4c0,0-0.1-0.1-0.2-0.1V111h3.3
				v0.4c-0.2,0-0.2,0.1-0.2,0.2c0,0.1,0,0.1,0.1,0.2c0.1,0.1,0.1,0.2,0.2,0.4l2.9,5.3l2.9-5.3c0.1-0.2,0.2-0.3,0.3-0.5
				c0.1-0.1,0.1-0.2,0.1-0.2c0-0.1-0.1-0.2-0.2-0.2V111h3.3v0.4c-0.1,0-0.2,0-0.2,0.1c-0.1,0-0.1,0.1-0.1,0.2v8.9
				c0,0.1,0,0.2,0.1,0.3c0.1,0.1,0.1,0.1,0.2,0.1v0.4h-2.7V121c0.3,0,0.5-0.1,0.4-0.4V114h0l-4,7.4h-0.2l-3.8-7.4h0h0v6.6
				c0,0.2,0.1,0.4,0.4,0.4v0.4h-2.7V121z"/>
			<path class="st0" d="M54.6,121c0.3,0,0.4,0,0.5-0.1c0.1-0.1,0.1-0.1,0.1-0.3v-8.9c0-0.1,0-0.2-0.1-0.3c-0.1-0.1-0.3-0.1-0.5-0.1
				V111h3.6v0.4c-0.4,0-0.7,0.1-0.7,0.4v8.9c0,0.2,0.2,0.4,0.7,0.4v0.4h-3.6V121z"/>
			<path class="st0" d="M62.3,121c0.3,0,0.4-0.1,0.4-0.4v-8.9c0-0.2-0.1-0.4-0.4-0.4V111h3.5v0.4c-0.1,0-0.2,0.1-0.2,0.1
				c0,0.1,0.2,0.3,0.5,0.6l5.7,6v-6.4c0-0.2-0.2-0.4-0.5-0.4V111h2.9v0.4c-0.3,0-0.4,0.1-0.4,0.4v8.9c0,0.2,0.1,0.4,0.4,0.4v0.4
				h-3.1V121c0.1,0,0.2,0,0.2-0.1c0-0.1-0.1-0.2-0.2-0.3c-0.2-0.2-0.3-0.3-0.5-0.5l-5.9-6.2v6.9c0,0.2,0.2,0.4,0.5,0.4v0.4h-2.9V121
				z"/>
			<path class="st0" d="M87.3,114.4l-0.3-0.2c0-0.2,0-0.2,0-0.3c0-0.1-0.1-0.3-0.3-0.5c-0.2-0.2-0.5-0.3-0.8-0.5
				c-0.3-0.1-0.7-0.3-1.1-0.3c-0.4-0.1-0.8-0.1-1.3-0.1c-0.6,0-1.1,0.1-1.7,0.2c-0.5,0.1-1,0.3-1.4,0.6c-0.4,0.3-0.7,0.7-0.9,1.1
				c-0.2,0.5-0.4,1-0.4,1.7c0,0.7,0.1,1.2,0.4,1.7c0.3,0.4,0.6,0.8,1,1.1s0.8,0.5,1.3,0.6c0.5,0.1,1,0.2,1.4,0.2
				c0.7,0,1.3,0,1.9-0.1c0.6-0.1,1.2-0.3,1.7-0.5v-1.5h-2.4c-0.2,0-0.3,0-0.4,0.1c-0.1,0.1-0.2,0.2-0.2,0.4h-0.4v-2.4h0.4
				c0,0.2,0.1,0.3,0.2,0.3s0.3,0.1,0.4,0.1h4.6v0.4c-0.1,0.1-0.2,0.1-0.3,0.2s-0.1,0.2-0.1,0.4v2.2c0,0.1,0,0.2,0.1,0.3
				c0,0.1,0.1,0.1,0.3,0.2v0.3c-0.1,0.1-0.4,0.2-0.7,0.4c-0.3,0.2-0.7,0.3-1.2,0.5c-0.5,0.2-1,0.3-1.6,0.4s-1.3,0.2-2.1,0.2
				c-1,0-2-0.1-2.8-0.3c-0.8-0.2-1.5-0.6-2.1-1c-0.6-0.5-1-1-1.3-1.7c-0.3-0.7-0.5-1.4-0.5-2.2s0.2-1.6,0.5-2.2
				c0.3-0.7,0.7-1.2,1.3-1.7c0.6-0.5,1.3-0.8,2.1-1.1c0.8-0.2,1.8-0.4,2.8-0.4c0.6,0,1.2,0.1,1.6,0.2c0.5,0.1,0.9,0.2,1.2,0.4
				c0.4,0.1,0.7,0.2,0.9,0.4c0.2,0.1,0.4,0.2,0.5,0.2c0.1,0,0.2,0,0.3,0c0.1,0,0.1-0.1,0.2-0.2l0.3,0.1L87.3,114.4z"/>
			<path class="st0" d="M98.3,121c0.2,0,0.4-0.1,0.5-0.3c0.1-0.2,0.2-0.4,0.3-0.6l4.4-9.2c0.1-0.2,0.2-0.4,0.3-0.6
				c0.1-0.2,0.1-0.3,0.1-0.4c0-0.2-0.1-0.3-0.2-0.3c-0.1-0.1-0.2-0.1-0.4-0.1V109h4v0.4c-0.1,0-0.2,0.1-0.3,0.1
				c-0.1,0.1-0.2,0.2-0.2,0.3c0,0.1,0,0.3,0.1,0.4c0.1,0.1,0.1,0.3,0.2,0.5l4.9,9.6c0.1,0.2,0.2,0.3,0.3,0.4
				c0.1,0.1,0.3,0.2,0.5,0.2v0.4h-4.2V121c0.1,0,0.1,0,0.2-0.1c0.1,0,0.1-0.1,0.1-0.2c0-0.2-0.1-0.4-0.2-0.6l-0.9-1.7h-5.8l-0.9,1.7
				c-0.2,0.3-0.2,0.6-0.2,0.7c0,0.2,0.1,0.3,0.4,0.3v0.4h-3.4V121z M107.2,116.6l-2-4.4l-2.2,4.4H107.2z"/>
			<path class="st0" d="M122,111c1.4,0,2.5,0.2,3.3,0.7c0.8,0.5,1.2,1.3,1.2,2.4c0,0.4-0.1,0.8-0.2,1.1c-0.2,0.3-0.4,0.6-0.6,0.9
				c-0.3,0.2-0.5,0.4-0.9,0.6c-0.3,0.1-0.6,0.3-1,0.3l2.3,3.4c0.1,0.2,0.3,0.3,0.4,0.4c0.2,0.1,0.3,0.2,0.5,0.2v0.4h-3.6V121
				c0.2,0,0.3-0.1,0.3-0.2c0-0.2-0.1-0.4-0.4-0.7l-1.9-2.8h-3.3v3.4c0,0.1,0.1,0.2,0.2,0.3c0.1,0.1,0.2,0.1,0.3,0.1v0.4h-3.1V121
				c0.3,0,0.4-0.1,0.4-0.4v-8.9c0-0.2-0.1-0.4-0.4-0.4V111H122z M121.9,115.5c1.5,0,2.3-0.5,2.3-1.5c0-0.4-0.2-0.7-0.6-0.9
				c-0.4-0.2-1-0.3-1.8-0.3h-3.7v2.7H121.9z"/>
			<path class="st0" d="M139.1,113.2c0-0.3-0.2-0.4-0.7-0.4h-5.8v2.4h3.6c0.3,0,0.5,0,0.6-0.1c0.1,0,0.2-0.1,0.2-0.3h0.4v2.5H137
				c0-0.2,0-0.3-0.2-0.3c-0.2,0-0.4-0.1-0.7-0.1h-3.5v2.8h6.1c0.2,0,0.3,0,0.5-0.1c0.1-0.1,0.2-0.2,0.2-0.3h0.4v2.5h-0.4
				c0-0.1-0.1-0.2-0.2-0.2s-0.3,0-0.5,0H130V121c0.1,0,0.2,0,0.2-0.1c0.1-0.1,0.1-0.1,0.1-0.3v-8.9c0-0.1,0-0.2-0.1-0.3
				c-0.1-0.1-0.2-0.1-0.2-0.1V111h8.4c0.5,0,0.7-0.1,0.7-0.4h0.4v2.6H139.1z"/>
			<path class="st0" d="M141.6,121c0.2,0,0.3-0.1,0.5-0.3c0.1-0.1,0.2-0.3,0.3-0.4l3.5-7.7c0.1-0.2,0.2-0.4,0.2-0.5
				c0.1-0.1,0.1-0.3,0.1-0.4c0-0.1,0-0.2-0.1-0.2c0,0-0.1-0.1-0.1-0.1V111h3.6v0.4c0,0-0.1,0.1-0.2,0.1c-0.1,0-0.1,0.1-0.1,0.2
				c0,0.1,0,0.2,0.1,0.3c0.1,0.1,0.1,0.3,0.2,0.5l3.8,8c0.1,0.1,0.2,0.2,0.3,0.3c0.1,0.1,0.2,0.1,0.3,0.1v0.4h-3.4v-0.4
				c0.1,0,0.2,0,0.2-0.1c0.1,0,0.1-0.1,0.1-0.3c0-0.1,0-0.2,0-0.3s-0.1-0.2-0.1-0.3l-0.6-1.3h-5.1l-0.7,1.3
				c-0.1,0.1-0.1,0.2-0.2,0.3c0,0.1-0.1,0.2-0.1,0.3c0,0.1,0,0.2,0.1,0.2c0.1,0,0.2,0,0.3,0v0.4h-3.2V121z M149.5,117.1l-1.9-4
				l-1.7,4H149.5z"/>
		</g>
	</g>
</g>
</svg>
