<svg xmlns="http://www.w3.org/2000/svg" viewBox="0 0 219 67"><defs><style>.cls-1{fill:#413e53;}.cls-2{fill:#fff;}</style></defs><title>資產 3</title><g id="圖層_2" data-name="圖層 2"><g id="圖層_1-2" data-name="圖層 1"><path id="Path_3082-3" data-name="Path 3082-3" class="cls-1" d="M17.85,3H216V39.19L195.05,64H3V18.15Z"/><path class="cls-2" d="M197.07,67,1,66.94V18.35L17.75,1H219V40.93Z"/><path class="cls-2" d="M17.46,1,1,18.08V66l195.33.06L218,40.28V1H17m0-1H219V40.62L196.8,67,0,66.94V17.63Z"/><g id="Path_3081-2" data-name="Path 3081-2"><path class="cls-2" d="M197.07,67,1,66.94V18.35L17.75,1H219V40.93Z"/><path class="cls-2" d="M17.46,1,1,18.08V66l195.33.06L218,40.28V1H17m0-1H219V40.62L196.8,67,0,66.94V17.63Z"/></g><path id="Path_3082-2" data-name="Path 3082-2" class="cls-1" d="M17.85,3H216V39.19L195.05,64H3V18.15Z"/></g></g></svg>